<?xml version="1.0" encoding="utf-8"?>
<!-- Generator: Adobe Illustrator 24.2.3, SVG Export Plug-In . SVG Version: 6.00 Build 0)  -->
<svg version="1.1" id="Layer_1" xmlns="http://www.w3.org/2000/svg" xmlns:xlink="http://www.w3.org/1999/xlink" x="0px" y="0px"
	 viewBox="0 0 574.2 554.9" style="enable-background:new 0 0 574.2 554.9;" xml:space="preserve">
<style type="text/css">
	.st0{opacity:0.119;fill:#B0B0FF;enable-background:new    ;}
	.st1{fill:#C2C5FF;}
	.st2{fill:#D2D2FF;}
	.st3{fill:#FFFFFF;}
	.st4{fill:#D2F0FF;}
	.st5{fill:#5046AF;}
	.st6{fill:#B0B0FF;}
	.st7{fill:#8383DD;}
	.st8{fill:#827DDC;}
	.st9{opacity:0.51;fill:url(#Path_33684_2_);enable-background:new    ;}
	.st10{opacity:0.51;fill:url(#Path_33685_2_);enable-background:new    ;}
	.st11{opacity:0.51;fill:#FFFFFF;enable-background:new    ;}
	.st12{fill:#FAB9AF;}
	.st13{fill:#41378C;}
	.st14{fill:#6E64C3;}
	.st15{fill:#FA968C;}
	.st16{opacity:0.195;fill:#B0B0FF;enable-background:new    ;}
	.st17{opacity:5.900000e-02;fill:#B0B0FF;enable-background:new    ;}
	.st18{fill:url(#SVGID_1_);}
	.st19{fill:#F5F5F5;}
	.st20{fill:#FAFAFA;}
	.st21{fill:#ECECEC;}
	.st22{fill:#E1E1E1;}
	.st23{fill:#1A2E35;}
	.st24{fill:#375A64;}
	.st25{fill:#0082CA;}
	.st26{opacity:0.8;}
	.st27{opacity:0.6;}
	.st28{opacity:0.3;}
	.st29{fill:#FFBF9D;}
	.st30{fill:#FF9A6C;}
</style>
<g>
	<g>
		<path class="st19" d="M475.5,237.9c-15.4-22.5-51.4-26.8-71.8-8.7c-0.4-18.2-12.5-35.7-29.4-42.5c-16.9-6.8-37.7-2.6-50.6,10.3
			c2.9-10.2-7.8-20.2-18.4-20.7c-10.6-0.6-20.4,5.1-29.5,10.6s-19,11.1-29.5,10.4c-11.5-0.8-21-8.8-31.7-12.9
			c-26.2-10.1-59.4,7.9-65.2,35.4c-29-11.7-66.3,7.5-73.6,37.9l424.9,5C497.9,250.6,487.7,240.6,475.5,237.9z"/>
	</g>
</g>
<g>
	<g>
		<g>
			<path class="st20" d="M458.4,101.2c0.7-5.3-6.8-9.7-12.5-10.2c-2.7-0.2-5.5,0.2-8.1-0.7c-5.5-1.9-7.8-9.1-13.2-11.4
				c-4-1.7-8.7-0.2-12.6,1.8c-3.9,2-7.8,4.5-12.2,4.7c-3.8,0.2-7.9-1.2-11.3,0.7c-2.5,1.4-3.8,4.2-6.1,5.9c-2.2,1.7-5.2,2-7.9,2.2
				c-2.8,0.2-5.7,0.2-8.2,1.3c-2.5,1.2-4.6,3.8-4.1,6.6L458.4,101.2z"/>
		</g>
	</g>
</g>
<g>
	<g>
		<g>
			<path class="st20" d="M88.5,57.2c0.4-3-3.8-5.4-7-5.7c-1.5-0.1-3.1,0.1-4.5-0.4c-3.1-1.1-4.3-5.1-7.3-6.3c-2.3-1-4.9-0.1-7,1
				s-4.3,2.5-6.8,2.6c-2.1,0.1-4.4-0.7-6.3,0.4c-1.4,0.8-2.1,2.4-3.4,3.3c-1.2,0.9-2.9,1.1-4.4,1.2c-1.6,0.1-3.2,0.1-4.6,0.7
				c-1.4,0.6-2.6,2.1-2.3,3.7L88.5,57.2z"/>
		</g>
	</g>
</g>
<g>
	<g>
		<g>
			<path class="st21" d="M526.5,155.6c0.8-6.1-7.8-11.2-14.3-11.7c-3.1-0.3-6.3,0.2-9.3-0.8c-6.4-2.2-8.9-10.5-15.1-13.1
				c-4.6-2-10-0.2-14.5,2.1s-9,5.1-14,5.4c-4.4,0.3-9.1-1.3-13,0.8c-2.9,1.6-4.4,4.9-7,6.8c-2.6,1.9-5.9,2.3-9.1,2.5
				s-6.5,0.2-9.4,1.5c-2.9,1.3-5.3,4.4-4.7,7.5L526.5,155.6z"/>
		</g>
	</g>
</g>
<g>
	<g>
		<g>
			<path class="st21" d="M514.6,50.3c0.6-4.3-5.5-7.9-10.1-8.2c-2.2-0.2-4.5,0.2-6.5-0.6c-4.5-1.6-6.3-7.4-10.7-9.2
				c-3.3-1.4-7-0.2-10.2,1.4c-3.2,1.6-6.3,3.6-9.8,3.8c-3.1,0.2-6.4-0.9-9.1,0.6c-2,1.1-3.1,3.4-4.9,4.8c-1.8,1.3-4.2,1.6-6.4,1.7
				c-2.2,0.1-4.6,0.1-6.6,1.1c-2,0.9-3.7,3.1-3.3,5.3L514.6,50.3z"/>
		</g>
	</g>
</g>
<g>
	<g>
		<g>
			<path class="st21" d="M106.1,153.5c0.4-3.2-4.1-5.9-7.5-6.1c-1.6-0.1-3.3,0.1-4.9-0.4c-3.3-1.2-4.7-5.5-7.9-6.8
				c-2.4-1-5.2-0.1-7.6,1.1c-2.4,1.2-4.7,2.7-7.3,2.9c-2.3,0.1-4.8-0.7-6.8,0.4c-1.5,0.8-2.3,2.6-3.7,3.6c-1.3,1-3.1,1.2-4.8,1.3
				c-1.7,0.1-3.4,0.1-4.9,0.8c-1.5,0.7-2.8,2.3-2.5,4L106.1,153.5z"/>
		</g>
	</g>
</g>
<g>
	<g>
		<g>
			<path class="st19" d="M226,104.2c0.9-6.8-8.7-12.4-15.9-13c-3.4-0.3-7,0.2-10.3-0.9c-7.1-2.5-9.9-11.6-16.7-14.5
				c-5.1-2.2-11.1-0.2-16.1,2.3c-5,2.5-9.9,5.7-15.5,6c-4.8,0.3-10.1-1.5-14.3,0.9c-3.2,1.8-4.8,5.4-7.7,7.6
				c-2.8,2.1-6.6,2.5-10.1,2.7c-3.5,0.2-7.2,0.2-10.4,1.7c-3.2,1.5-5.9,4.9-5.2,8.4L226,104.2z"/>
		</g>
	</g>
</g>
<g>
	<g>
		<g>
			<g>
				<path class="st21" d="M30.3,348c0,0-9.9,1.4-4.3,23.2c5.6,21.8,10.4,33,10.4,33s0.8,4.9-3.2,4.8c-4-0.1-12.1-3.3-14.8,1
					c-2.8,4.5-0.3,9.8,5.9,15.4c6.3,5.6,19.5,18.4,20.7,19.5c1.2,1.1,2.1,3.6-0.7,3.9c-2.7,0.3-22.1-1.9-22.6,7.4
					c-0.5,9.3,19.5,22,21.6,23.4c2.2,1.4,2.5,2.6,2,3.8c-0.5,1.3-6.9-0.1-12.5-0.5c-5.5-0.4-12,0.1-11.9,5.5
					c0.2,5.4,10.7,18.9,41.3,28.9l14.5,3.7l10.7-10.6c21.4-24,23.7-41,21.2-45.7c-2.6-4.7-8.4-1.9-13,1.2c-4.6,3.1-9.5,7.5-10.5,6.7
					c-1-0.8-1.3-2-0.2-4.3c1.1-2.3,12-23.4,7-31.1c-5.1-7.7-20.7,3.9-23.2,5c-2.5,1.1-3-1.5-2.5-3c0.5-1.6,5.5-19.3,8.1-27.3
					c2.6-8,2.1-13.9-2.6-16.3c-4.5-2.3-9.9,4.5-13.3,6.6c-3.4,2.1-5.2-2.5-5.2-2.5s-1.5-12.1-7.5-33.7c-6-21.7-15.6-17.7-15.6-17.7"
					/>
			</g>
		</g>
	</g>
	<g>
		<g>
			<g>
				<g>
					<path class="st22" d="M76.8,524.4c-4.4-15.9-11.7-44.4-18.1-68.7c-6.4-24.4-12.2-46.4-16.5-62.4c-2.2-8-3.9-14.4-5.1-18.9
						c-0.6-2.2-1.1-3.9-1.4-5.1c-0.1-0.6-0.3-1-0.3-1.3c-0.1-0.3-0.1-0.5-0.1-0.5s0.1,0.1,0.1,0.4c0.1,0.3,0.2,0.8,0.4,1.3
						c0.3,1.2,0.8,2.9,1.5,5.1c1.3,4.4,3.1,10.9,5.2,18.8c4.4,15.9,10.2,38,16.6,62.3c6.4,24.4,13.6,52.8,17.9,68.8"/>
				</g>
			</g>
		</g>
	</g>
	<g>
		<g>
			<g>
				<g>
					<path class="st22" d="M29.6,414.8c0,0,0.4,0.2,1,0.5c0.6,0.4,1.5,0.9,2.5,1.5c2.1,1.3,4.9,3.3,8,5.4c3,2.2,5.8,4.1,7.9,5.6
						c1,0.7,1.8,1.2,2.4,1.7c0.6,0.4,0.9,0.6,0.9,0.7s-0.4-0.2-1-0.5c-0.6-0.4-1.5-0.9-2.5-1.6c-2.1-1.4-4.9-3.3-8-5.5
						c-3.1-2.1-5.8-4.1-7.9-5.5c-1-0.7-1.8-1.2-2.4-1.7C29.8,415.1,29.5,414.8,29.6,414.8z"/>
				</g>
			</g>
		</g>
	</g>
	<g>
		<g>
			<g>
				<g>
					<path class="st22" d="M53.4,429.5c-0.1-0.1,3.6-6.1,8.3-13.5c4.7-7.4,8.6-13.3,8.7-13.2c0.1,0.1-3.6,6.1-8.3,13.5
						C57.4,423.7,53.5,429.6,53.4,429.5z"/>
				</g>
			</g>
		</g>
	</g>
	<g>
		<g>
			<g>
				<g>
					<path class="st22" d="M61.5,467.4c0,0,0.3-0.3,0.8-0.8c0.6-0.5,1.4-1.2,2.3-2c1.9-1.7,4.5-4,7.3-6.7c2.8-2.7,5.2-5.2,7-7
						c0.8-0.9,1.5-1.6,2.1-2.2c0.5-0.5,0.8-0.8,0.8-0.8c0,0-0.2,0.3-0.7,0.9c-0.5,0.5-1.1,1.3-2,2.3c-1.7,1.9-4.1,4.4-6.9,7.1
						c-2.8,2.7-5.4,5-7.4,6.6c-1,0.8-1.8,1.4-2.3,1.9C61.9,467.2,61.6,467.4,61.5,467.4z"/>
				</g>
			</g>
		</g>
	</g>
	<g>
		<g>
			<g>
				<g>
					<path class="st22" d="M37,458.8c0,0,0.4,0.1,1,0.2c0.7,0.2,1.6,0.5,2.7,0.8c2.2,0.7,5.3,1.7,8.7,2.8c3.4,1.1,6.4,2.2,8.6,3
						c1,0.4,1.9,0.7,2.6,1c0.6,0.2,0.9,0.4,0.9,0.4c0,0-0.4-0.1-1-0.2c-0.7-0.2-1.6-0.5-2.7-0.8c-2.2-0.7-5.3-1.7-8.7-2.8
						c-3.4-1.1-6.4-2.2-8.6-3c-1-0.4-1.9-0.7-2.6-1C37.4,459,37,458.9,37,458.8z"/>
				</g>
			</g>
		</g>
	</g>
	<g>
		<g>
			<g>
				<g>
					<path class="st22" d="M40,493.2c0,0,0.5,0.1,1.3,0.3c0.9,0.3,2,0.6,3.4,1c2.9,0.9,6.8,2.1,11.2,3.6c4.4,1.4,8.3,2.7,11.1,3.7
						c1.4,0.5,2.5,0.9,3.4,1.2c0.8,0.3,1.2,0.5,1.2,0.5c0,0-0.5-0.1-1.3-0.3c-0.9-0.3-2-0.6-3.4-1c-2.9-0.9-6.8-2.1-11.2-3.6
						c-4.4-1.4-8.3-2.7-11.1-3.7c-1.4-0.5-2.5-0.9-3.4-1.2C40.4,493.4,40,493.2,40,493.2z"/>
				</g>
			</g>
		</g>
	</g>
	<g>
		<g>
			<g>
				<g>
					<path class="st22" d="M70.8,502.9c0,0,0.3-0.4,1-1c0.7-0.7,1.6-1.6,2.8-2.6c2.3-2.2,5.5-5.3,9-8.8c3.5-3.5,6.5-6.7,8.7-9.1
						c1-1.1,1.9-2.1,2.6-2.8c0.6-0.7,1-1,1-1c0,0-0.3,0.4-0.9,1.1c-0.6,0.7-1.4,1.7-2.5,2.9c-2.1,2.4-5.1,5.7-8.6,9.2
						c-3.4,3.5-6.7,6.5-9.1,8.7c-1.2,1.1-2.2,1.9-2.9,2.5C71.2,502.7,70.8,503,70.8,502.9z"/>
				</g>
			</g>
		</g>
	</g>
</g>
<g>
	<g>
		<g>
			<g>
				<g>
					<g>
						<g>
							<path class="st19" d="M490.2,525.6c-24.2-13.4-33.3-43.2-36.1-70.7c-0.5-4.6-1.6-9.3-0.1-13.6c1.5-4.3,5.9-7.7,10-6.3
								c3.4,1.2,5.3,4.9,7.5,7.9c2.9,4,7,7.1,11.4,8.9c2.9,1.1,6.4,1.6,8.9-0.4c3.4-2.7,3.1-8.2,2.5-12.7
								c-1.2-8.5-2.4-16.9-3.6-25.4c-0.6-4.5-1.3-9.2-0.5-13.7c0.7-4.5,3.1-8.9,7-10.7c3.9-1.8,9.2,0,10.7,4.4
								c0.6,1.8,0.5,3.8,0.9,5.6c0.4,1.9,1.5,3.8,3.2,4.1c1.8,0.3,3.3-1.2,4.4-2.7c3.8-5.2,6-11.5,7.9-17.8c2-6.3,3.9-12.7,7.2-18.2
								c3.3-5.6,8.3-10.3,14.3-11.5c6-1.2,13.1,1.9,15.5,8.1c2.4,6.2-0.2,13.2-3.3,18.9c-4.6,8.5-10.4,16.2-17,22.9
								c-1.2,1.2-2.5,2.5-2.8,4.3c-0.5,3.2,2.6,5.8,5.5,6.4c3.3,0.7,6.7-0.1,10.1-0.2c3.4,0,7.2,1,8.9,4.2c2.4,4.4-0.6,9.8-3.8,13.5
								c-6.3,7.4-13.8,13.5-22.1,18.2c-3,1.7-6.1,3.2-8.3,5.9c-2.2,2.7-3.2,7-1.2,10c2,3,6,3.5,9.2,2.4c3.2-1.1,5.9-3.4,8.8-5.1
								c5.5-3.2,13.1-3.8,17.6,1.1c2.9,3.2,3.8,8.1,3.1,12.5c-0.7,4.4-2.7,8.4-4.9,12.1c-7.8,13-18.5,24.1-31.4,31
								C516.8,525.9,504.4,529,490.2,525.6"/>
						</g>
					</g>
				</g>
			</g>
		</g>
	</g>
	<g>
		<g>
			<g>
				<g>
					<g>
						<g>
							<g>
								<path class="st22" d="M494.5,507.5c1.9-14.3,5.2-29.9,9.2-45.9c1-4,2-8,3-11.9c1-3.9,2-7.8,3.2-11.5
									c2.3-7.5,5.1-14.4,7.9-20.9c2.8-6.5,5.7-12.6,8.5-18.3c2.8-5.7,5.5-10.9,8.1-15.5c5.2-9.3,10.3-16.3,14-20.9
									c1.8-2.3,3.3-4.1,4.3-5.2c0.5-0.6,0.9-1,1.2-1.3c0.3-0.3,0.4-0.4,0.4-0.4c0,0-0.1,0.2-0.4,0.5c-0.3,0.3-0.6,0.8-1.1,1.4
									c-1,1.2-2.4,3-4.2,5.3c-3.6,4.7-8.6,11.7-13.7,21c-2.6,4.6-5.2,9.9-8,15.5c-2.7,5.7-5.6,11.8-8.4,18.3
									c-2.8,6.5-5.6,13.5-7.9,20.9c-1.2,3.7-2.1,7.5-3.1,11.5c-1,3.9-2,7.9-3,11.9c-4,16.1-7.3,31.5-9.3,45.8"/>
							</g>
						</g>
					</g>
				</g>
			</g>
		</g>
	</g>
	<g>
		<g>
			<g>
				<g>
					<g>
						<g>
							<g>
								<path class="st22" d="M510.1,438.1c-0.1,0-0.3-0.7-0.7-1.9c-0.4-1.2-0.9-3-1.5-5.2c-1.2-4.4-2.7-10.6-4.3-17.5
									c-1.6-6.8-3.2-13-4.4-17.4c-0.6-2.2-1.2-4-1.5-5.2c-0.4-1.2-0.6-1.9-0.5-1.9c0.1,0,0.3,0.6,0.8,1.8c0.5,1.2,1.1,3,1.8,5.1
									c1.4,4.4,3.1,10.5,4.7,17.4c1.6,6.7,3,12.9,4.1,17.5c0.5,2.1,0.9,3.9,1.3,5.3C510.1,437.4,510.2,438.1,510.1,438.1z"/>
							</g>
						</g>
					</g>
				</g>
			</g>
		</g>
	</g>
	<g>
		<g>
			<g>
				<g>
					<g>
						<g>
							<g>
								<path class="st22" d="M563.3,419.6c0,0.1-0.8,0.3-2.1,0.6c-1.4,0.3-3.4,0.8-5.9,1.4c-4.9,1.3-11.7,3.3-19,5.8
									c-7.3,2.6-13.9,5.2-18.6,7.3c-2.4,1-4.2,1.9-5.5,2.5c-1.3,0.6-2,0.9-2.1,0.9c0-0.1,0.7-0.5,1.9-1.2c1.3-0.7,3.1-1.6,5.4-2.7
									c4.6-2.2,11.2-4.9,18.6-7.5c7.4-2.6,14.2-4.5,19.1-5.6c2.5-0.6,4.5-1,5.9-1.2C562.5,419.6,563.3,419.6,563.3,419.6z"/>
							</g>
						</g>
					</g>
				</g>
			</g>
		</g>
	</g>
	<g>
		<g>
			<g>
				<g>
					<g>
						<g>
							<g>
								<path class="st22" d="M495.1,506.3c0,0-0.2-0.2-0.5-0.7c-0.3-0.5-0.7-1.2-1.2-2c-1.1-1.7-2.5-4.3-4.3-7.4
									c-3.5-6.3-8.2-15.2-13.2-25.1c-5-9.9-9.5-18.8-12.9-25.2c-1.7-3.1-3-5.7-4.1-7.6c-0.4-0.8-0.8-1.5-1.1-2.1
									c-0.2-0.5-0.4-0.7-0.3-0.8c0,0,0.2,0.2,0.5,0.7c0.3,0.5,0.7,1.2,1.2,2c1.1,1.7,2.5,4.3,4.3,7.4c3.5,6.3,8.2,15.2,13.2,25.1
									c5,9.9,9.5,18.8,12.9,25.2c1.7,3.1,3,5.7,4.1,7.6c0.4,0.8,0.8,1.5,1.1,2.1C495,506,495.1,506.3,495.1,506.3z"/>
							</g>
						</g>
					</g>
				</g>
			</g>
		</g>
	</g>
	<g>
		<g>
			<g>
				<g>
					<g>
						<g>
							<g>
								<path class="st22" d="M564.3,471.3c0,0-0.2,0.2-0.7,0.4c-0.5,0.3-1.2,0.6-2,1c-1.9,0.9-4.4,2.2-7.4,3.8
									c-6.3,3.2-14.9,7.7-24.4,12.7c-9.5,5-18.1,9.4-24.5,12.5c-3.2,1.5-5.7,2.7-7.5,3.5c-0.8,0.4-1.5,0.7-2.1,0.9
									c-0.5,0.2-0.7,0.3-0.7,0.3c0,0,0.2-0.2,0.7-0.4c0.5-0.3,1.2-0.6,2-1c1.9-0.9,4.4-2.2,7.4-3.8c6.3-3.2,14.9-7.7,24.4-12.7
									c9.5-5,18.1-9.4,24.5-12.5c3.2-1.5,5.7-2.7,7.5-3.5c0.8-0.4,1.5-0.7,2.1-0.9C564.1,471.3,564.3,471.2,564.3,471.3z"/>
							</g>
						</g>
					</g>
				</g>
			</g>
		</g>
	</g>
</g>
<g>
	<g>
		<g>
			<path class="st23" d="M563.2,552.6c0,0.2-123.1,0.3-275,0.3c-151.9,0-275-0.1-275-0.3c0-0.2,123.1-0.3,275-0.3
				C440.1,552.3,563.2,552.4,563.2,552.6z"/>
		</g>
	</g>
</g>
<g>
	<g>
		<g>
			<g>
				<g>
					<g>
						<g>
							<g>
								<g>
									<g>
										<g>
											<path class="st24" d="M491.7,546.2H80.4c-9.4,0-17-7.6-17-17V268.7c0-9.4,7.6-17,17-17h411.3c9.4,0,17,7.6,17,17v260.5
												C508.6,538.5,501,546.2,491.7,546.2z"/>
										</g>
									</g>
								</g>
							</g>
						</g>
					</g>
					<g>
						<g>
							<g>
								<g>
									<g>
										<g>
											<path class="st24" d="M508.1,552.9H66.3c-11.2,0-20.3-9.1-20.3-20.3v-5.4h482.4v5.4C528.4,543.8,519.3,552.9,508.1,552.9
												z"/>
										</g>
									</g>
								</g>
							</g>
						</g>
					</g>
					<g>
						<g>
							<g>
								<g>
									<g>
										<g>
											<rect x="75.3" y="263.4" class="st23" width="420.1" height="248.7"/>
										</g>
									</g>
								</g>
							</g>
						</g>
					</g>
					<g>
						<g>
							<g>
								<g>
									<g>
										<g>
											<polygon class="st23" points="242.1,524.4 248.1,533.9 332.3,533.9 337.9,524.4 											"/>
										</g>
									</g>
								</g>
							</g>
						</g>
					</g>
				</g>
				<g>
					<g>
						<g>
							<g>
								<g>
									<g>
										<g>
											<g>
												<g>
													<g>
														<path class="st21" d="M483.8,511.3h-396c-2.1,0-3.8-1.7-3.8-3.8V275.6c0-2.1,1.7-3.8,3.8-3.8h396
															c2.1,0,3.8,1.7,3.8,3.8v231.8C487.7,509.6,485.9,511.3,483.8,511.3z"/>
													</g>
												</g>
											</g>
										</g>
									</g>
								</g>
							</g>
							<g>
								<g>
									<g>
										<g>
											<g>
												<g>
													<g>
														<polygon class="st20" points="487.2,511.6 83.5,511.6 84,289.7 487.2,289.7 														"/>
													</g>
												</g>
											</g>
										</g>
									</g>
								</g>
							</g>
							<g>
								<g>
									<g>
										<g>
											<g>
												<g>
													<g>
														<path class="st23" d="M117.1,281.1c0,1.8-1.4,3.2-3.2,3.2c-1.8,0-3.2-1.4-3.2-3.2c0-1.8,1.4-3.2,3.2-3.2
															C115.6,277.8,117.1,279.3,117.1,281.1z"/>
													</g>
												</g>
											</g>
										</g>
									</g>
								</g>
							</g>
							<g>
								<g>
									<g>
										<g>
											<g>
												<g>
													<g>
														<path class="st23" d="M97.5,281.1c0,1.8-1.4,3.2-3.2,3.2c-1.8,0-3.2-1.4-3.2-3.2c0-1.8,1.4-3.2,3.2-3.2
															C96.1,277.8,97.5,279.3,97.5,281.1z"/>
													</g>
												</g>
											</g>
										</g>
									</g>
								</g>
							</g>
							<g>
								<g>
									<g>
										<g>
											<g>
												<g>
													<g>
														<path class="st23" d="M106.9,281.1c0,1.8-1.4,3.2-3.2,3.2c-1.8,0-3.2-1.4-3.2-3.2c0-1.8,1.4-3.2,3.2-3.2
															C105.5,277.8,106.9,279.3,106.9,281.1z"/>
													</g>
												</g>
											</g>
										</g>
									</g>
								</g>
							</g>
						</g>
					</g>
				</g>
				<g>
					<g>
						<g>
							<g>
								<g>
									<g>
										<path class="st23" d="M504.8,524.4c0,0.2-98.8,0.3-220.7,0.3c-121.9,0-220.7-0.1-220.7-0.3c0-0.2,98.8-0.3,220.7-0.3
											C406,524.1,504.8,524.2,504.8,524.4z"/>
									</g>
								</g>
							</g>
						</g>
					</g>
				</g>
			</g>
		</g>
	</g>
</g>
<g>
	<g>
		<g>
			<g>
				<path class="st25" d="M444.7,385.2c-11.4,9.5-16.6,25.7-12.9,40.1c-10.5-2.1-21.9,1.4-29.5,8.9c-7.6,7.5-11.1,18.9-9.1,29.4
					c-11.6-8-29.2-5-37.5,6.3c-0.2-7.5-0.5-15.3-4.4-21.7c-3.9-6.4-12.8-10.3-19.1-6.2c4.7-5.4,5.4-13.9,1.7-20
					c-3.8-6.1-11.7-9.3-18.7-7.4c-0.2-9-5.9-72.4-10.5-125.9H265c-4.6,52.6-10,113-10.2,121.7c-6.9-1.8-14.9,1.3-18.7,7.4
					c-3.8,6.1-3.1,14.6,1.7,20c-6.3-4-15.2-0.1-19.1,6.2c-3.9,6.4-4.2,14.2-4.4,21.7c-8.3-11.3-26-14.3-37.5-6.3
					c2-10.5-1.5-21.9-9.1-29.4c-7.6-7.5-19-11-29.5-8.9c3.7-14.3-1.5-30.6-12.9-40.1c-11.4-9.5-28.3-11.7-41.7-5.5v136h402.8V379.7
					C473,373.5,456.1,375.8,444.7,385.2z"/>
			</g>
		</g>
		<g class="st26">
			<g>
				<g>
					<path class="st3" d="M444.7,385.2c-11.4,9.5-16.6,25.7-12.9,40.1c-10.5-2.1-21.9,1.4-29.5,8.9c-7.6,7.5-11.1,18.9-9.1,29.4
						c-11.6-8-29.2-5-37.5,6.3c-0.2-7.5-0.5-15.3-4.4-21.7c-3.9-6.4-12.8-10.3-19.1-6.2c4.7-5.4,5.4-13.9,1.7-20
						c-3.8-6.1-11.7-9.3-18.7-7.4c-0.2-9-5.9-72.4-10.5-125.9H265c-4.6,52.6-10,113-10.2,121.7c-6.9-1.8-14.9,1.3-18.7,7.4
						c-3.8,6.1-3.1,14.6,1.7,20c-6.3-4-15.2-0.1-19.1,6.2c-3.9,6.4-4.2,14.2-4.4,21.7c-8.3-11.3-26-14.3-37.5-6.3
						c2-10.5-1.5-21.9-9.1-29.4c-7.6-7.5-19-11-29.5-8.9c3.7-14.3-1.5-30.6-12.9-40.1c-11.4-9.5-28.3-11.7-41.7-5.5v136h402.8V379.7
						C473,373.5,456.1,375.8,444.7,385.2z"/>
				</g>
			</g>
		</g>
	</g>
	<g>
		<g>
			<path class="st25" d="M442.3,484.4c-14.4-9.7-32.9-13.1-49.8-9.2c-16.9,3.9-32,15-40.7,30c-3.5-4.8-8.2-8.6-13.5-11.3
				c0.4-1,0.7-2,0.9-3.1c2.4-10.4-2.1-22.1-10.9-28.2c-6.2-4.3-14.3-5.7-21.6-4.1l-11.9-169.9h-15.7v156.1c-9.7,1.5-16.4,13-13,22.1
				c-6.7,1-12.9,5.5-15.7,11.7c-0.9,2-1.1,6.2-0.3,11.1c-11.8,0.2-23.4,6-30.4,15.5c-8.7-15-23.8-26.2-40.7-30
				c-16.9-3.9-35.4-0.5-49.8,9.2c-4.1-19.8-26.3-33.9-46-29.2v56.6l181.7-0.2c1.2,0.3,2.5,0.5,3.8,0.5l44.4-0.5l175.1,0.2v-56.6
				C468.6,450.4,446.4,464.5,442.3,484.4z"/>
		</g>
	</g>
	<g class="st27">
		<g>
			<path class="st3" d="M442.3,484.4c-14.4-9.7-32.9-13.1-49.8-9.2c-16.9,3.9-32,15-40.7,30c-3.5-4.8-8.2-8.6-13.5-11.3
				c0.4-1,0.7-2,0.9-3.1c2.4-10.4-2.1-22.1-10.9-28.2c-6.2-4.3-14.3-5.7-21.6-4.1l-11.9-169.9h-15.7v156.1c-9.7,1.5-16.4,13-13,22.1
				c-6.7,1-12.9,5.5-15.7,11.7c-0.9,2-1.1,6.2-0.3,11.1c-11.8,0.2-23.4,6-30.4,15.5c-8.7-15-23.8-26.2-40.7-30
				c-16.9-3.9-35.4-0.5-49.8,9.2c-4.1-19.8-26.3-33.9-46-29.2v56.6l181.7-0.2c1.2,0.3,2.5,0.5,3.8,0.5l44.4-0.5l175.1,0.2v-56.6
				C468.6,450.4,446.4,464.5,442.3,484.4z"/>
		</g>
	</g>
</g>
<g>
	<g>
		<g>
			<g>
				<g>
					<g>
						<g>
							<path class="st25" d="M269.9,235.5c-9,4.3-13,16.5-8.4,25.3c1.8,3.5,4.8,6.5,5.2,10.4c0.6,6-5,10.6-6.8,16.4
								c-2,6.7,2.4,14.7,9.2,16.5c3.1,0.8,6.7,0.7,8.8,3.1c2.6,3.1,0.7,8.2,3,11.6c2,3,6.8,3.2,9.8,1.2c3-2,4.7-5.5,5.9-9
								c1.2-3.5,2.1-7.1,4.2-10.1c2.3-3.3,5.8-5.6,8.5-8.5c6.7-7,8.7-17.5,7.2-27.1c-1.5-9.6-6.1-18.3-11.4-26.5"/>
						</g>
					</g>
				</g>
			</g>
			<g class="st28">
				<g>
					<g>
						<g>
							<g>
								<path class="st3" d="M269.9,235.5c-9,4.3-13,16.5-8.4,25.3c1.8,3.5,4.8,6.5,5.2,10.4c0.6,6-5,10.6-6.8,16.4
									c-2,6.7,2.4,14.7,9.2,16.5c3.1,0.8,6.7,0.7,8.8,3.1c2.6,3.1,0.7,8.2,3,11.6c2,3,6.8,3.2,9.8,1.2c3-2,4.7-5.5,5.9-9
									c1.2-3.5,2.1-7.1,4.2-10.1c2.3-3.3,5.8-5.6,8.5-8.5c6.7-7,8.7-17.5,7.2-27.1c-1.5-9.6-6.1-18.3-11.4-26.5"/>
							</g>
						</g>
					</g>
				</g>
			</g>
		</g>
		<g>
			<g>
				<g>
					<g>
						<path class="st25" d="M277.8,240.6c-7.6,3.3-10.9,13.9-6.6,21c2.6,4.3,7.7,8.3,6.5,13.2c-0.8,3.3-4.4,5.4-5.4,8.7
							c-1.4,4.4,2.8,9,7.3,9.5c4.5,0.6,8.9-1.9,12.4-4.9c11.9-10.5,14.8-31,7.4-45"/>
					</g>
				</g>
			</g>
		</g>
	</g>
	<g>
		<g>
			<g>
				<g>
					<path class="st25" d="M316.9,173.8c0,0,39,25.8,34.7,70.4l-35.9-16.1L316.9,173.8z"/>
				</g>
			</g>
		</g>
	</g>
	<g>
		<g>
			<polygon class="st23" points="252.1,227.2 261,241.9 306.9,241.9 315.8,228.1 			"/>
		</g>
	</g>
	<g>
		<g>
			<path class="st25" d="M281.6,79.1c-18.2,1.2-32.2,16.5-31.8,34.7l2.3,114.3h63.7l2.1-114.4C318.3,93.7,301.5,77.7,281.6,79.1z"/>
		</g>
	</g>
	<g class="st26">
		<g>
			<path class="st3" d="M281.6,79.1c-18.2,1.2-32.2,16.5-31.8,34.7l2.3,114.3h63.7l2.1-114.4C318.3,93.7,301.5,77.7,281.6,79.1z"/>
		</g>
	</g>
	<g>
		<g>
			<g>
				<g>
					<path class="st25" d="M251,173.8c0,0-39,25.8-34.7,70.4l35.9-16.1L251,173.8z"/>
				</g>
			</g>
		</g>
	</g>
	<g>
		<g>
			<g>
				<g>
					<path class="st25" d="M250.1,110c13.5-11.8,55.8-11.5,67.1-1.9c-2.9-42.4-35.3-58.3-35.3-58.3C248.8,72.7,250.1,110,250.1,110z
						"/>
				</g>
			</g>
		</g>
	</g>
	<g>
		<g>
			<g>
				<g>
					<g>
						<path class="st23" d="M281.9,49.7c0,0,0.1,0.1,0.4,0.3c0.3,0.2,0.6,0.6,1.1,1c0.5,0.5,1.1,1,1.8,1.7c0.3,0.3,0.7,0.7,1.1,1.1
							c0.4,0.4,0.8,0.8,1.2,1.3c0.8,0.9,1.8,1.9,2.8,3.1c1,1.2,2,2.5,3.1,3.9c0.5,0.7,1,1.5,1.6,2.3c0.5,0.8,1.1,1.6,1.7,2.4
							c1,1.7,2.2,3.5,3.2,5.5c2.1,4,3.9,8.6,5.3,13.7c0.7,2.6,1.2,5.2,1.5,8c0.2,1.4,0.3,2.8,0.5,4.2c0.2,1.4,0.1,2.9,0.2,4.4
							c0,11.8-0.1,24.9-0.3,38.5c-0.3,27.3-0.7,52.1-1,70c-0.2,8.9-0.3,16.2-0.4,21.2c-0.1,2.5-0.1,4.4-0.1,5.8c0,0.7,0,1.2,0,1.5
							c0,0.3,0,0.5,0,0.5s0-0.2,0-0.5c0-0.3,0-0.8,0-1.5c0-1.3,0-3.3,0.1-5.8c0.1-5,0.2-12.3,0.3-21.2c0.2-17.9,0.6-42.7,0.9-70
							c0.2-13.7,0.3-26.7,0.3-38.5c0-1.5,0-2.9-0.1-4.4c-0.2-1.4-0.3-2.9-0.5-4.2c-0.3-2.8-0.8-5.5-1.5-8c-1.3-5.1-3.1-9.7-5.2-13.6
							c-1-2-2.1-3.8-3.2-5.5c-0.5-0.9-1.1-1.6-1.6-2.4c-0.5-0.8-1.1-1.5-1.6-2.3c-1.1-1.4-2.1-2.7-3.1-3.9c-1-1.1-2-2.2-2.8-3.1
							c-0.4-0.5-0.8-0.9-1.2-1.3c-0.4-0.4-0.8-0.7-1.1-1.1c-0.7-0.7-1.3-1.2-1.7-1.7c-0.5-0.5-0.8-0.8-1.1-1.1
							C282,49.9,281.9,49.7,281.9,49.7z"/>
					</g>
				</g>
			</g>
		</g>
	</g>
	<g>
		<g>
			<g>
				<g>
					<g>
						
							<ellipse transform="matrix(0.2156 -0.9765 0.9765 0.2156 88.5071 381.2217)" class="st20" cx="281.5" cy="135.5" rx="16.8" ry="15.6"/>
					</g>
				</g>
			</g>
		</g>
		<g>
			<g>
				<g>
					<g>
						<g>
							<path class="st23" d="M285.2,119.1c0,0-0.1,0-0.3,0c-0.2,0-0.4-0.1-0.8-0.1c-0.2,0-0.4-0.1-0.6-0.1c-0.2,0-0.4,0-0.7,0
								c-0.2,0-0.5,0-0.8,0c-0.3,0-0.6,0-0.9,0c-0.6,0-1.3,0.2-2.1,0.3c-0.8,0.2-1.6,0.4-2.4,0.7c-1.7,0.7-3.5,1.7-5.2,3.3
								c-1.7,1.6-3.2,3.6-4.2,6.1c-0.2,0.6-0.5,1.3-0.6,1.9c-0.1,0.3-0.2,0.7-0.3,1c-0.1,0.3-0.1,0.7-0.2,1.1l-0.1,0.5l0,0.5
								c0,0.4-0.1,0.7-0.1,1.1c0,0.4,0,0.7,0,1.1l0,0.6l0.1,0.6c0.3,3,1.4,6.1,3.4,8.7c2,2.6,5,4.6,8.4,5.3c3.4,0.7,7,0.2,9.9-1.3
								c2.9-1.5,5.3-3.8,6.8-6.4l0.3-0.5l0.2-0.5c0.2-0.3,0.3-0.7,0.5-1c0.1-0.3,0.3-0.7,0.4-1l0.2-0.5l0.1-0.5
								c0.1-0.3,0.2-0.7,0.3-1c0.1-0.3,0.1-0.7,0.2-1c0.1-0.7,0.2-1.4,0.2-2c0.2-2.7-0.4-5.2-1.2-7.3c-0.8-2.1-2-3.9-3.3-5.2
								c-0.6-0.7-1.3-1.2-1.9-1.7c-0.6-0.4-1.2-0.9-1.8-1.1c-0.3-0.1-0.5-0.3-0.8-0.4c-0.3-0.1-0.5-0.2-0.7-0.3
								c-0.2-0.1-0.4-0.2-0.6-0.3c-0.2-0.1-0.4-0.1-0.5-0.2c-0.3-0.1-0.6-0.2-0.7-0.2C285.2,119.1,285.2,119.1,285.2,119.1
								c0,0,0.1,0,0.3,0.1c0.2,0,0.4,0.1,0.7,0.2c0.2,0,0.4,0.1,0.6,0.1c0.2,0.1,0.4,0.2,0.6,0.2c0.2,0.1,0.5,0.2,0.7,0.3
								c0.3,0.1,0.5,0.3,0.8,0.4c0.6,0.3,1.2,0.7,1.8,1.1c0.6,0.5,1.3,1,1.9,1.7c1.3,1.3,2.5,3.1,3.4,5.2c0.9,2.1,1.4,4.7,1.3,7.4
								c-0.1,0.7-0.1,1.4-0.2,2.1c-0.1,0.3-0.1,0.7-0.2,1.1c-0.1,0.3-0.2,0.7-0.3,1l-0.1,0.5l-0.2,0.5c-0.1,0.3-0.3,0.7-0.4,1
								c-0.2,0.3-0.3,0.7-0.5,1l-0.2,0.5l-0.3,0.5c-1.5,2.7-3.9,5.1-6.9,6.6c-3,1.6-6.6,2.1-10.1,1.3c-3.5-0.8-6.6-2.8-8.6-5.5
								c-2.1-2.6-3.2-5.8-3.5-8.9l-0.1-0.6l0-0.6c0-0.4,0-0.8,0-1.1c0-0.4,0.1-0.7,0.1-1.1l0-0.6l0.1-0.5c0.1-0.4,0.1-0.7,0.2-1.1
								c0.1-0.4,0.2-0.7,0.3-1c0.2-0.7,0.4-1.3,0.7-2c1-2.6,2.6-4.6,4.3-6.2c1.7-1.6,3.6-2.7,5.3-3.3c0.9-0.4,1.7-0.5,2.5-0.7
								c0.8-0.1,1.5-0.3,2.1-0.2c0.3,0,0.6,0,0.9,0c0.3,0,0.6,0,0.8,0.1c0.2,0,0.5,0,0.7,0c0.2,0,0.4,0.1,0.6,0.1
								c0.3,0.1,0.6,0.1,0.8,0.1C285.1,119.1,285.2,119.1,285.2,119.1z"/>
						</g>
					</g>
				</g>
			</g>
		</g>
	</g>
	<g>
		<g>
			<g>
				<path class="st23" d="M265.4,133c0,0.2-3.6,0.1-7.9,0.9c-4.3,0.8-7.7,2.1-7.7,1.9c0-0.1,0.8-0.5,2.1-1c1.4-0.5,3.3-1.1,5.5-1.5
					c2.2-0.4,4.2-0.5,5.7-0.5C264.5,132.8,265.4,132.9,265.4,133z"/>
			</g>
		</g>
	</g>
	<g>
		<g>
			<g>
				<path class="st23" d="M316.9,133c0,0.1-1.1,0-2.9-0.3c-1.8-0.2-4.2-0.5-6.9-0.7c-2.7-0.2-5.1-0.3-6.9-0.3c-1.8,0-2.9,0-2.9-0.1
					c0-0.1,1.1-0.2,2.9-0.3c1.8-0.1,4.2-0.1,6.9,0.1c2.7,0.2,5.1,0.5,6.9,0.9C315.9,132.6,316.9,132.9,316.9,133z"/>
			</g>
		</g>
	</g>
	<g>
		<g>
			<g>
				<path class="st23" d="M317.3,198.4c0,0-0.2,0-0.7,0c-0.5,0-1.1-0.1-1.9-0.1c-1.8-0.1-4.2-0.3-7.1-0.5c-6-0.4-14.2-0.8-23.4-0.8
					c-9.1,0-17.4,0.4-23.4,0.9c-2.9,0.2-5.3,0.4-7.1,0.6c-0.8,0.1-1.4,0.1-1.9,0.1c-0.4,0-0.7,0-0.7,0c0,0,0.2-0.1,0.7-0.1
					c0.5-0.1,1.1-0.2,1.9-0.3c1.7-0.2,4.1-0.5,7.1-0.8c6-0.6,14.3-1,23.4-1.1c9.2,0,17.4,0.5,23.4,1c3,0.3,5.4,0.5,7.1,0.7
					c0.8,0.1,1.4,0.2,1.9,0.3C317.1,198.3,317.3,198.4,317.3,198.4z"/>
			</g>
		</g>
	</g>
	<g>
		<g>
			<g>
				<path class="st23" d="M267.1,149.4c0,0.1-0.4,0.1-0.7,0.6c-0.1,0.2-0.2,0.5-0.1,0.8c0.1,0.3,0.4,0.5,0.7,0.5
					c0.4,0,0.7-0.1,0.8-0.4c0.1-0.3,0.1-0.6,0-0.8c-0.2-0.5-0.6-0.6-0.6-0.7c0-0.1,0.5-0.2,1,0.5c0.2,0.3,0.3,0.8,0.1,1.3
					c-0.2,0.5-0.8,0.8-1.4,0.8c-0.6,0-1.1-0.4-1.3-1c-0.1-0.5,0.1-1,0.3-1.2C266.6,149.1,267.2,149.3,267.1,149.4z"/>
			</g>
		</g>
	</g>
	<g>
		<g>
			<g>
				<path class="st23" d="M281,156.9c0,0.1-0.4,0.1-0.7,0.6c-0.1,0.2-0.2,0.5-0.1,0.8c0.1,0.3,0.4,0.5,0.7,0.5
					c0.4,0,0.7-0.1,0.8-0.4c0.1-0.3,0.1-0.6,0-0.8c-0.2-0.5-0.6-0.6-0.6-0.7c0-0.1,0.5-0.2,1,0.5c0.2,0.3,0.3,0.8,0.1,1.3
					c-0.2,0.5-0.8,0.8-1.4,0.8c-0.6,0-1.1-0.4-1.3-1c-0.1-0.5,0.1-1,0.3-1.2C280.5,156.6,281,156.8,281,156.9z"/>
			</g>
		</g>
	</g>
	<g>
		<g>
			<g>
				<path class="st23" d="M296.3,150.5c0,0.1-0.4,0.1-0.7,0.6c-0.1,0.2-0.2,0.5-0.1,0.8c0.1,0.3,0.4,0.5,0.7,0.5
					c0.4,0,0.7-0.1,0.8-0.4c0.1-0.3,0.1-0.6,0-0.8c-0.2-0.5-0.6-0.6-0.6-0.7c0-0.1,0.5-0.2,1,0.5c0.2,0.3,0.3,0.8,0.1,1.3
					c-0.2,0.5-0.8,0.8-1.4,0.8c-0.6,0-1.1-0.4-1.3-1c-0.1-0.5,0.1-1,0.3-1.2C295.8,150.2,296.4,150.4,296.3,150.5z"/>
			</g>
		</g>
	</g>
	<g>
		<g>
			<g>
				<path class="st23" d="M301.3,139c0,0.1-0.4,0.1-0.7,0.6c-0.1,0.2-0.2,0.5-0.1,0.8c0.1,0.3,0.4,0.5,0.7,0.5
					c0.4,0,0.7-0.1,0.8-0.4c0.1-0.3,0.1-0.6,0-0.8c-0.2-0.5-0.6-0.6-0.6-0.7c0-0.1,0.5-0.2,1,0.5c0.2,0.3,0.3,0.8,0.1,1.3
					c-0.2,0.5-0.8,0.8-1.4,0.8c-0.6,0-1.1-0.4-1.3-1c-0.1-0.5,0.1-1,0.3-1.2C300.8,138.8,301.3,139,301.3,139z"/>
			</g>
		</g>
	</g>
	<g>
		<g>
			<g>
				<path class="st23" d="M262.1,137.9c0,0.1-0.4,0.1-0.7,0.6c-0.1,0.2-0.2,0.5-0.1,0.8c0.1,0.3,0.4,0.5,0.7,0.5
					c0.4,0,0.7-0.1,0.8-0.4c0.1-0.3,0.1-0.6,0-0.8c-0.2-0.5-0.6-0.6-0.6-0.7c0-0.1,0.5-0.2,1,0.5c0.2,0.3,0.3,0.8,0.1,1.3
					c-0.2,0.5-0.8,0.8-1.4,0.8c-0.6,0-1.1-0.4-1.3-1c-0.1-0.5,0.1-1,0.3-1.2C261.6,137.7,262.1,137.9,262.1,137.9z"/>
			</g>
		</g>
	</g>
	<g>
		<g>
			<g>
				<path class="st23" d="M296.3,122.2c0-0.1,0.4-0.1,0.7-0.6c0.1-0.2,0.2-0.5,0.1-0.8c-0.1-0.3-0.4-0.5-0.7-0.5
					c-0.4,0-0.7,0.1-0.8,0.4c-0.1,0.3-0.1,0.6,0,0.8c0.2,0.5,0.6,0.6,0.6,0.7c0,0.1-0.5,0.2-1-0.5c-0.2-0.3-0.3-0.8-0.1-1.3
					c0.2-0.5,0.8-0.8,1.4-0.8c0.6,0,1.1,0.4,1.3,1c0.1,0.5-0.1,1-0.3,1.2C296.8,122.5,296.2,122.3,296.3,122.2z"/>
			</g>
		</g>
	</g>
	<g>
		<g>
			<g>
				<path class="st23" d="M281,115.5c0-0.1,0.4-0.1,0.7-0.6c0.1-0.2,0.2-0.5,0.1-0.8c-0.1-0.3-0.4-0.5-0.7-0.5
					c-0.4,0-0.7,0.1-0.8,0.4c-0.1,0.3-0.1,0.6,0,0.8c0.2,0.5,0.6,0.6,0.6,0.7c0,0.1-0.5,0.2-1-0.5c-0.2-0.3-0.3-0.8-0.1-1.3
					c0.2-0.5,0.8-0.8,1.4-0.8c0.6,0,1.1,0.4,1.3,1c0.1,0.5-0.1,1-0.3,1.2C281.5,115.7,280.9,115.5,281,115.5z"/>
			</g>
		</g>
	</g>
	<g>
		<g>
			<g>
				<path class="st23" d="M265.8,122.2c0-0.1,0.4-0.1,0.7-0.6c0.1-0.2,0.2-0.5,0.1-0.8c-0.1-0.3-0.4-0.5-0.7-0.5
					c-0.4,0-0.7,0.1-0.8,0.4c-0.1,0.3-0.1,0.6,0,0.8c0.2,0.5,0.6,0.6,0.6,0.7c0,0.1-0.5,0.2-1-0.5c-0.2-0.3-0.3-0.8-0.1-1.3
					c0.2-0.5,0.8-0.8,1.4-0.8c0.6,0,1.1,0.4,1.3,1c0.1,0.5-0.1,1-0.3,1.2C266.3,122.5,265.8,122.3,265.8,122.2z"/>
			</g>
		</g>
	</g>
	<g>
		<g>
			<g>
				<g>
					<g>
						<g>
							<path class="st25" d="M279,178.5l1.4,68.3c0,2,1.7,3.6,3.6,3.5l0,0c1.9,0,3.5-1.6,3.5-3.5c0.1-12.3,0.6-53.7,0.7-68.3
								c0-2.8-2.5-5-5.3-4.6l0,0C280.7,174.2,279,176.2,279,178.5z"/>
						</g>
					</g>
				</g>
			</g>
		</g>
		<g class="st28">
			<g>
				<g>
					<g>
						<g>
							<path d="M279,178.5l1.4,68.3c0,2,1.7,3.6,3.6,3.5l0,0c1.9,0,3.5-1.6,3.5-3.5c0.1-12.3,0.6-53.7,0.7-68.3c0-2.8-2.5-5-5.3-4.6
								l0,0C280.7,174.2,279,176.2,279,178.5z"/>
						</g>
					</g>
				</g>
			</g>
		</g>
	</g>
	<g>
		<g>
			<g>
				<path class="st3" d="M281.1,53.6c0.2,0.2-2.1,2.4-5.4,6.3c-1.7,1.9-3.5,4.3-5.5,7c-1.9,2.7-3.9,5.8-5.7,9.2
					c-1.8,3.4-3.3,6.8-4.5,9.9c-1.2,3.1-2.2,6-2.8,8.4c-1.4,4.9-2,8-2.3,7.9c-0.2,0-0.1-3.2,0.9-8.3c0.5-2.5,1.4-5.5,2.5-8.7
					c1.2-3.2,2.7-6.7,4.5-10.1c1.9-3.5,3.9-6.6,6-9.4c2.1-2.7,4.1-5.1,5.9-6.9C278.4,55.3,281,53.5,281.1,53.6z"/>
			</g>
		</g>
	</g>
	<g>
		<g>
			<g>
				<path class="st3" d="M249.5,180.6c0.2,0.3-3,2.4-7.5,6.6c-0.6,0.5-1.1,1.1-1.7,1.7c-0.6,0.6-1.2,1.2-1.8,1.9
					c-1.3,1.3-2.5,2.8-3.8,4.3c-2.5,3.2-5,6.9-7.2,11c-2.2,4.1-3.8,8.3-5,12.1c-0.5,1.9-1.1,3.8-1.5,5.6c-0.2,0.9-0.4,1.7-0.6,2.5
					c-0.1,0.8-0.3,1.6-0.4,2.4c-0.9,6.1-0.8,9.9-1.2,9.9c-0.1,0-0.3-0.9-0.4-2.7c0-0.4-0.1-0.9-0.1-1.5c0-0.5,0-1.1,0-1.7
					c0-1.2,0-2.7,0.2-4.2c0.1-0.8,0.2-1.6,0.3-2.4c0.1-0.9,0.3-1.7,0.5-2.6c0.3-1.8,0.8-3.7,1.3-5.7c1.2-4,2.8-8.3,5-12.5
					c2.3-4.2,4.9-8,7.5-11.2c1.4-1.6,2.6-3.1,4-4.3c0.7-0.6,1.3-1.3,1.9-1.9c0.6-0.6,1.3-1.1,1.9-1.6c1.2-1,2.3-1.8,3.3-2.6
					c0.5-0.4,1-0.7,1.4-1c0.5-0.3,0.9-0.5,1.2-0.7C248.6,180.9,249.4,180.5,249.5,180.6z"/>
			</g>
		</g>
	</g>
</g>
<g>
	<g>
		<g>
			<path class="st25" d="M199.3,403.1c-3.1-1.8-4.9-5.6-4.3-9.1c0.6-3.5,3.5-6.5,7-7.2c3.2-0.6,7.2,0.3,9.2-2.3
				c1.8-2.3,0.4-5.4,1.3-9.2c0.8-3.6,4-5.5,7.5-5.4c3.5,0.1,6.8,2.3,8.6,5.4c1.8,3.1,2.9,7.8,2.5,11.3c-0.9,8.1-5.3,12.2-10.6,15.6
				C215.1,405.7,204.9,406.5,199.3,403.1"/>
		</g>
	</g>
	<g class="st26">
		<g>
			<g>
				<path class="st3" d="M199.3,403.1c-3.1-1.8-4.9-5.6-4.3-9.1c0.6-3.5,3.5-6.5,7-7.2c3.2-0.6,7.2,0.3,9.2-2.3
					c1.8-2.3,0.4-5.4,1.3-9.2c0.8-3.6,4-5.5,7.5-5.4c3.5,0.1,6.8,2.3,8.6,5.4c1.8,3.1,2.9,7.8,2.5,11.3c-0.9,8.1-5.3,12.2-10.6,15.6
					C215.1,405.7,204.9,406.5,199.3,403.1"/>
			</g>
		</g>
	</g>
</g>
<g>
	<g>
		<g>
			<path class="st25" d="M330.2,338.5c2.6-4.9,8.4-8,13.9-7.3c5.5,0.7,10.4,5.1,11.7,10.5c1.2,5,0,11.2,4.1,14.2
				c3.7,2.7,8.5,0.4,14.4,1.4c5.7,1,8.8,5.9,8.9,11.5c0.1,5.5-3.3,10.8-7.9,13.7c-4.7,2.9-12,5-17.5,4.5c-12.6-1-19.3-7.5-25-15.6
				C327.1,363.3,325.3,347.5,330.2,338.5"/>
		</g>
	</g>
	<g class="st26">
		<g>
			<g>
				<path class="st3" d="M330.2,338.5c2.6-4.9,8.4-8,13.9-7.3c5.5,0.7,10.4,5.1,11.7,10.5c1.2,5,0,11.2,4.1,14.2
					c3.7,2.7,8.5,0.4,14.4,1.4c5.7,1,8.8,5.9,8.9,11.5c0.1,5.5-3.3,10.8-7.9,13.7c-4.7,2.9-12,5-17.5,4.5c-12.6-1-19.3-7.5-25-15.6
					C327.1,363.3,325.3,347.5,330.2,338.5"/>
			</g>
		</g>
	</g>
</g>
<g>
	<g>
		<g>
			<path class="st25" d="M235.9,322c-2.2,0.9-4.7,4.1-4.6,7.7c0.2,4.6,5,8.6,9.6,7.7c4.6-0.8,7.8-6.1,6.4-10.6
				C245.8,322.4,240.1,320,235.9,322"/>
		</g>
	</g>
	<g class="st26">
		<g>
			<g>
				<path class="st3" d="M235.9,322c-2.2,0.9-4.7,4.1-4.6,7.7c0.2,4.6,5,8.6,9.6,7.7c4.6-0.8,7.8-6.1,6.4-10.6
					C245.8,322.4,240.1,320,235.9,322"/>
			</g>
		</g>
	</g>
</g>
<g>
	<g>
		<g>
			<path class="st25" d="M359.9,419.8c-1.1,0.5-2.4,2.1-2.3,3.8c0.1,2.3,2.5,4.3,4.8,3.9c2.3-0.4,3.9-3.1,3.2-5.3
				C364.9,420,362,418.8,359.9,419.8"/>
		</g>
	</g>
	<g class="st26">
		<g>
			<g>
				<path class="st3" d="M359.9,419.8c-1.1,0.5-2.4,2.1-2.3,3.8c0.1,2.3,2.5,4.3,4.8,3.9c2.3-0.4,3.9-3.1,3.2-5.3
					C364.9,420,362,418.8,359.9,419.8"/>
			</g>
		</g>
	</g>
</g>
<g>
	<g>
		<g>
			<path class="st25" d="M327.4,437.2h-72.5c-12.7,0-23-10.3-23-23v-3.2c0-12.7,10.3-23,23-23h72.5c12.7,0,23,10.3,23,23v3.2
				C350.5,426.9,340.2,437.2,327.4,437.2z"/>
		</g>
	</g>
	<g>
		<g>
			<path class="st3" d="M267.3,415.8l0.8-1.8c0.9,0.6,2.1,1.1,3.4,1.1c1.4,0,2-0.5,2-1.1c0-1.9-5.9-0.6-5.9-4.4
				c0-1.7,1.4-3.2,4.3-3.2c1.3,0,2.6,0.3,3.6,0.9l-0.7,1.8c-1-0.5-1.9-0.8-2.8-0.8c-1.4,0-1.9,0.5-1.9,1.2c0,1.9,5.9,0.6,5.9,4.3
				c0,1.7-1.4,3.2-4.3,3.2C269.9,417,268.3,416.5,267.3,415.8z"/>
		</g>
		<g>
			<path class="st3" d="M279.4,408.5h-3.3v-1.9h8.9v1.9h-3.3v8.3h-2.4V408.5z"/>
		</g>
		<g>
			<path class="st3" d="M292.6,414.6h-4.7l-0.9,2.2h-2.4l4.6-10.2h2.3l4.6,10.2h-2.5L292.6,414.6z M291.8,412.8l-1.6-3.9l-1.6,3.9
				H291.8z"/>
		</g>
		<g>
			<path class="st3" d="M303.5,416.8l-2-2.8h-0.1h-2.1v2.8H297v-10.2h4.4c2.7,0,4.4,1.4,4.4,3.7c0,1.5-0.8,2.7-2.1,3.2l2.3,3.3
				H303.5z M301.3,408.5h-1.9v3.6h1.9c1.4,0,2.2-0.7,2.2-1.8C303.5,409.1,302.8,408.5,301.3,408.5z"/>
		</g>
		<g>
			<path class="st3" d="M309.7,408.5h-3.3v-1.9h8.9v1.9h-3.3v8.3h-2.4V408.5z"/>
		</g>
	</g>
</g>
<g>
	<g>
		<g>
			<g>
				<g>
					<g>
						<g>
							<path class="st25" d="M470.5,529.7l13.8,4.8l-0.1,13.3c-6.6,1.9-7.5,5.2-7.5,5.2l13.8-0.3l12-24.4l-9.5-6.2l-17.7-7.8"/>
						</g>
					</g>
				</g>
				<g class="st27">
					<g>
						<g>
							<polygon class="st3" points="502.4,528.3 490.4,552.7 476.6,553 478.1,550.9 489.3,550.1 500.3,527 							"/>
						</g>
					</g>
				</g>
			</g>
			<g>
				<g>
					<g>
						<g>
							<path class="st23" d="M484,541.8c0.1,0.1,0.9-0.3,2-0.3c1.1,0,1.9,0.4,2,0.3c0.1-0.1-0.7-0.9-2-0.9
								C484.7,540.8,483.9,541.7,484,541.8z"/>
						</g>
					</g>
				</g>
			</g>
			<g>
				<g>
					<g>
						<g>
							<path class="st23" d="M484.2,538.5c0.1,0.1,0.7-0.7,1.8-1c1.1-0.3,2,0.2,2.1,0.1c0-0.1-0.1-0.3-0.5-0.5
								c-0.4-0.2-1-0.3-1.7-0.2c-0.7,0.2-1.2,0.6-1.4,0.9C484.2,538.2,484.1,538.4,484.2,538.5z"/>
						</g>
					</g>
				</g>
			</g>
			<g>
				<g>
					<g>
						<g>
							<path class="st23" d="M484,534.3c0.2,0.1,0.6-0.7,1.6-1.1c0.9-0.4,1.8-0.1,1.9-0.2c0-0.1-0.1-0.3-0.5-0.4
								c-0.4-0.1-1-0.2-1.6,0c-0.6,0.2-1,0.7-1.2,1C483.9,534,483.9,534.2,484,534.3z"/>
						</g>
					</g>
				</g>
			</g>
			<g>
				<g>
					<g>
						<g>
							<path class="st23" d="M483,534.3c0.2,0,0.1-0.9,0.5-1.8c0.4-0.9,1.1-1.5,1-1.6c0-0.2-1.1,0.2-1.6,1.4
								C482.4,533.3,482.8,534.3,483,534.3z"/>
						</g>
					</g>
				</g>
			</g>
			<g>
				<g>
					<g>
						<g>
							<path class="st23" d="M481.4,532.7c0.1,0,0.2-0.7,0.3-1.9c0.1-0.7,0.1-1.3,0.2-2c0-0.4,0.1-0.8,0-1.3
								c-0.1-0.3-0.2-0.5-0.5-0.7c-0.3-0.2-0.7-0.2-0.9,0c-0.5,0.4-0.6,0.8-0.8,1.2c-0.1,0.4-0.2,0.8-0.2,1.2c0,0.8,0.1,1.5,0.4,2.1
								c0.5,1.1,1.2,1.5,1.2,1.5c0.1-0.1-0.5-0.6-0.8-1.6c-0.2-0.5-0.3-1.2-0.2-1.9c0-0.4,0.1-0.7,0.2-1.1c0.1-0.3,0.3-0.8,0.6-0.9
								c0.1-0.1,0.2-0.1,0.3,0c0.1,0.1,0.2,0.2,0.2,0.3c0.1,0.3,0,0.7,0,1.1c0,0.7,0,1.4-0.1,2C481.2,532,481.3,532.7,481.4,532.7z"
								/>
						</g>
					</g>
				</g>
			</g>
			<g>
				<g>
					<g>
						<g>
							<path class="st23" d="M481.1,533.3c0.1,0-0.4-0.6-1.4-1c-1-0.3-2.8-0.3-3.9,1.4c-0.1,0.2,0,0.4,0.1,0.5
								c0.1,0.2,0.2,0.2,0.4,0.3c0.2,0.1,0.5,0.1,0.6,0.1c0.4,0,0.8,0,1.1,0c0.7-0.1,1.3-0.3,1.8-0.5
								C480.8,533.8,481.3,533.3,481.1,533.3c0-0.2-0.5,0.2-1.5,0.5c-0.5,0.2-1.1,0.3-1.7,0.3c-0.3,0-0.7,0-1,0
								c-0.2,0-0.4,0-0.5-0.1c-0.1-0.1-0.1,0-0.1-0.1c0-0.1,0.1-0.2,0.3-0.3c0.1-0.1,0.3-0.2,0.4-0.3c0.3-0.2,0.6-0.3,0.9-0.4
								c0.6-0.2,1.2-0.2,1.7-0.1C480.6,532.9,481.1,533.4,481.1,533.3z"/>
						</g>
					</g>
				</g>
			</g>
			<g class="st27">
				<g>
					<g>
						<path class="st3" d="M491.4,528.1c0,0.9,0.8,1.6,1.7,1.6c0.9,0,1.6-0.8,1.6-1.7c0-0.9-0.8-1.6-1.7-1.6
							C492,526.5,491.3,527.2,491.4,528.1z"/>
					</g>
				</g>
			</g>
		</g>
	</g>
	<g>
		<g>
			<g>
				<g>
					<g>
						<path class="st25" d="M399.7,524.2l0.2,18.1c0,0-18.3,6.3-18.6,9.6l35,0.9l0.9-28.2L399.7,524.2z"/>
					</g>
				</g>
			</g>
			<g class="st27">
				<g>
					<g>
						<g>
							<path class="st3" d="M410.8,541c0.7,0.2,1.1,1,0.9,1.7c-0.2,0.7-1,1.1-1.6,1c-0.7-0.2-1.2-1.1-1-1.8c0.2-0.7,1.2-1.2,1.8-0.8
								"/>
						</g>
					</g>
				</g>
			</g>
			<g class="st27">
				<g>
					<g>
						<path class="st3" d="M416.3,552.8l0-2.8l-33.6,0.2c0,0-1.6,0.6-1.4,1.7L416.3,552.8z"/>
					</g>
				</g>
			</g>
			<g>
				<g>
					<g>
						<g>
							<path class="st23" d="M399.3,542.1c0,0.2,0.9,0.3,1.7,0.8c0.8,0.5,1.3,1.3,1.4,1.2c0.2,0-0.1-1.1-1.1-1.7
								C400.3,541.7,399.3,541.9,399.3,542.1z"/>
						</g>
					</g>
				</g>
			</g>
			<g>
				<g>
					<g>
						<g>
							<path class="st23" d="M395.6,543.5c0,0.2,0.7,0.5,1.3,1.2c0.6,0.7,0.7,1.5,0.9,1.5c0.2,0,0.3-1-0.4-1.9
								C396.6,543.4,395.6,543.3,395.6,543.5z"/>
						</g>
					</g>
				</g>
			</g>
			<g>
				<g>
					<g>
						<g>
							<path class="st23" d="M393.4,547.8c0.2,0,0.4-0.8,0-1.8c-0.4-1-1.2-1.3-1.3-1.2c-0.1,0.1,0.4,0.7,0.7,1.4
								C393.2,547.1,393.3,547.8,393.4,547.8z"/>
						</g>
					</g>
				</g>
			</g>
			<g>
				<g>
					<g>
						<g>
							<path class="st23" d="M399.7,538c0.1,0.2,0.9-0.1,1.8,0c1,0.1,1.7,0.4,1.8,0.3c0.1-0.1-0.6-0.8-1.8-0.9
								C400.5,537.3,399.7,537.8,399.7,538z"/>
						</g>
					</g>
				</g>
			</g>
		</g>
		<g class="st28">
			<g>
				<g>
					<polygon points="399.8,527.8 399.8,531 417,531.3 417.1,528.4 					"/>
				</g>
			</g>
		</g>
		<g>
			<g>
				<g>
					<g>
						<path class="st23" d="M399.8,534.3c0,0.1,0.7,0.2,1.8,0c0.5-0.1,1.2-0.2,1.9-0.5c0.3-0.1,0.7-0.3,1-0.5
							c0.2-0.1,0.4-0.2,0.5-0.4c0.2-0.2,0.3-0.6,0.1-0.9c-0.2-0.3-0.5-0.4-0.7-0.4c-0.3,0-0.5,0-0.7,0.1c-0.4,0.1-0.8,0.2-1.1,0.3
							c-0.7,0.3-1.2,0.7-1.6,1c-0.8,0.7-1.1,1.4-1.1,1.4c0.1,0.1,0.5-0.5,1.3-1.1c0.4-0.3,1-0.6,1.6-0.8c0.3-0.1,0.7-0.2,1-0.3
							c0.4-0.1,0.7-0.1,0.8,0.1c0,0.1,0,0.1,0,0.2c-0.1,0.1-0.2,0.2-0.4,0.3c-0.3,0.2-0.6,0.4-0.9,0.5c-0.6,0.3-1.2,0.5-1.7,0.6
							C400.4,534.2,399.8,534.2,399.8,534.3z"/>
					</g>
				</g>
			</g>
		</g>
		<g>
			<g>
				<g>
					<g>
						<path class="st23" d="M400,534.6c0.1,0,0.4-0.6,0.5-1.7c0-0.5,0-1.2-0.2-1.9c-0.1-0.4-0.2-0.7-0.4-1.1
							c-0.2-0.4-0.4-0.8-1.1-0.9c-0.3,0-0.6,0.2-0.7,0.5c-0.1,0.2-0.2,0.4-0.2,0.6c-0.1,0.4-0.1,0.8,0,1.2c0.1,0.7,0.4,1.4,0.7,1.8
							c0.7,0.9,1.4,1.1,1.4,1.1c0.1-0.1-0.5-0.4-1-1.3c-0.2-0.4-0.5-1-0.5-1.7c0-0.3,0-0.7,0.1-1c0.1-0.4,0.2-0.7,0.4-0.6
							c0.2,0,0.5,0.3,0.6,0.6c0.2,0.3,0.3,0.6,0.4,1c0.2,0.6,0.3,1.2,0.3,1.8C400.1,533.9,399.9,534.5,400,534.6z"/>
					</g>
				</g>
			</g>
		</g>
	</g>
	<g>
		<g>
			<g>
				<g>
					<g>
						<polygon class="st23" points="481.2,515 440.8,500 483.2,494 485.4,473.4 406,480.3 394.8,496.4 397.8,516.7 475.1,536.3 
													"/>
					</g>
				</g>
			</g>
			<g>
				<g>
					<g>
						<path class="st23" d="M395.6,529.5l-3.9-73.8c0.2-7.2,4.1-13.8,10.4-17.4l0,0c5.1-3,11.3-3.6,17-1.7l51.5,17.2l28.2,7.3
							c0,0,4.8,11.9,2,21.1c-2.8,9-12.7,15-21.4,12.4c-10.8-3.2-60.4-24.5-60.4-24.5v60.1L395.6,529.5z"/>
					</g>
				</g>
			</g>
			<g>
				<g>
					<g>
						<g>
							<path class="st24" d="M478.7,494.7c0,0-0.1,0-0.3-0.1c-0.2-0.1-0.5-0.2-0.9-0.3c-0.8-0.3-1.9-0.8-3.4-1.4
								c-3-1.2-7.2-2.9-12.4-5c-10.5-4.3-24.9-10.3-40.8-16.8c-0.7-0.3-1.4-0.6-2.1-0.9l0.3-0.2c0,16.7-0.1,31.7-0.1,42.6
								c0,5.4-0.1,9.8-0.1,12.8c0,1.5,0,2.7,0,3.5c0,0.4,0,0.7,0,0.9c0,0.2,0,0.3,0,0.3s0-0.1,0-0.3c0-0.2,0-0.5,0-0.9
								c0-0.8,0-2,0-3.5c0-3.1,0-7.4-0.1-12.8c0-10.9,0-25.9-0.1-42.6l0-0.4l0.3,0.1c0.7,0.3,1.4,0.6,2.1,0.9
								c15.9,6.6,30.3,12.6,40.7,17c5.2,2.2,9.4,4,12.3,5.2c1.4,0.6,2.5,1.1,3.3,1.4c0.4,0.2,0.6,0.3,0.9,0.4
								C478.6,494.6,478.7,494.7,478.7,494.7z"/>
						</g>
					</g>
				</g>
			</g>
			<g>
				<g>
					<g>
						<g>
							<path class="st24" d="M431.1,494.8c0-0.1,2.5,0.3,5.3,1.9c2.7,1.5,4.5,3.4,4.4,3.5c-0.1,0.1-1.9-1.6-4.6-3.1
								C433.5,495.5,431.1,494.9,431.1,494.8z"/>
						</g>
					</g>
				</g>
			</g>
		</g>
		<g>
			<g>
				<g>
					<g>
						<path class="st24" d="M414.5,459.9c0.1-0.1,1.4,2.1,2.7,5c1.3,2.9,2,5.3,1.9,5.4c-0.1,0-1.1-2.3-2.4-5.2
							C415.5,462.3,414.4,460,414.5,459.9z"/>
					</g>
				</g>
			</g>
		</g>
	</g>
	<g>
		<g>
			<polygon class="st29" points="414.6,427.4 405.5,425.7 395.9,435.5 397.7,441.7 408.9,437.6 			"/>
		</g>
	</g>
	<g>
		<g>
			<g>
				<g>
					<path class="st29" d="M330.5,405.1l10.4-2.3l16.7,2.6l-0.6,10.6c0,0-5.2,0.7-7,0.1c-1.9-0.6-3.4-0.1-3.4-0.1s1,2.1-0.7,2.4
						c-1.8,0.3-4.6,1.1-5.1-1.4c0,0-1.3,0.2-1.9-1.4c0,0-1.4,0.5-2-1.9c-0.6-2.4-0.3-5.9,4.4-7.1c0.2-0.1,0.4-0.6-0.1-0.6l-7.4,1.4
						C333.6,407.6,328.7,407.8,330.5,405.1z"/>
				</g>
			</g>
		</g>
		<g>
			<g>
				<g>
					<g>
						<path class="st30" d="M339.3,412.6c0-0.1,0.7-0.2,1.8-0.3c0.6-0.1,1.2-0.2,2-0.2c0.4,0,0.8,0.2,1.2,0.6c0.3,0.4,0.3,1,0.1,1.4
							c-0.5,0.9-1.4,1.1-2.1,1.3c-0.7,0.2-1.4,0.3-1.9,0.4c-1.1,0.2-1.8,0.1-1.8,0.1c0-0.1,0.7-0.1,1.7-0.4c0.5-0.1,1.2-0.3,1.9-0.5
							c0.3-0.1,0.7-0.2,1-0.4c0.3-0.2,0.6-0.4,0.8-0.7c0.2-0.3,0.2-0.7,0-0.9c-0.2-0.3-0.5-0.4-0.9-0.4c-0.7,0-1.4,0.1-1.9,0.1
							C340,412.6,339.3,412.6,339.3,412.6z"/>
					</g>
				</g>
			</g>
		</g>
		<g>
			<g>
				<g>
					<g>
						<path class="st30" d="M341.1,410.3c0,0.1-0.5,0.4-0.9,1c-0.4,0.6-0.5,1.2-0.6,1.2c-0.1,0-0.3-0.7,0.2-1.5
							C340.3,410.3,341.1,410.2,341.1,410.3z"/>
					</g>
				</g>
			</g>
		</g>
		<g>
			<g>
				<g>
					<g>
						<path class="st30" d="M344,414.1c0,0,0.1,0,0.3,0c0.2,0.1,0.4,0.3,0.5,0.6c0.2,0.3,0.3,0.7,0.2,1.2c-0.1,0.5-0.6,0.8-1.1,0.9
							c-0.9,0.2-1.7,0.4-2.3,0.5c-0.6,0.1-1,0-1-0.1c0-0.1,0.4-0.1,0.9-0.3c0.6-0.1,1.3-0.4,2.2-0.6c0.4-0.1,0.7-0.3,0.8-0.6
							c0.1-0.3,0.1-0.6-0.1-0.9c-0.1-0.3-0.2-0.5-0.3-0.6C344,414.1,343.9,414.1,344,414.1z"/>
					</g>
				</g>
			</g>
		</g>
		<g>
			<g>
				<g>
					<g>
						<path class="st30" d="M344.6,415.9c0,0,0.1-0.2,0.4-0.3c0.3,0,0.8,0.1,1.2,0.3c0.5,0.3,0.6,0.8,0.6,1.1c0,0.3,0,0.5-0.1,0.5
							c-0.1,0-0.1-0.2-0.2-0.4c-0.1-0.3-0.2-0.6-0.5-0.8c-0.3-0.2-0.7-0.3-0.9-0.4C344.8,415.9,344.7,415.9,344.6,415.9z"/>
					</g>
				</g>
			</g>
		</g>
		<g>
			<g>
				<g>
					<g>
						<path class="st29" d="M349.8,407.6l-4.7,1.9l-4.4,3.1c0,0,0,1.1,2.5,0.7c2.5-0.4,4.4-1.7,4.4-1.7s3.3,2.1,6.1,1.6"/>
					</g>
				</g>
			</g>
			<g>
				<g>
					<g>
						<g>
							<path class="st30" d="M353.7,413.1c0,0-0.2,0.1-0.5,0.1c-0.3,0-0.8,0.1-1.3,0c-1.1-0.1-2.7-0.6-4.5-1.5l0.2,0
								c-1.5,0.9-3.3,1.8-5.5,1.9c-0.3,0-0.6,0-1-0.1c-0.3-0.1-0.7-0.3-0.7-0.8l0-0.1l0.1-0.1c1.6-1.1,3.1-2.2,4.4-3.1l0,0l0,0
								c1.4-0.5,2.6-1,3.4-1.3c0.8-0.3,1.3-0.4,1.3-0.4s-0.4,0.2-1.2,0.6c-0.8,0.4-2,0.8-3.4,1.4l0,0c-1.3,0.9-2.8,2-4.4,3.1
								l0.1-0.2c0,0.1,0.2,0.3,0.4,0.4c0.2,0.1,0.5,0.1,0.8,0.1c2-0.1,3.9-0.9,5.3-1.7l0.1-0.1l0.1,0.1c1.6,1,3.2,1.5,4.3,1.6
								C353.1,413.2,353.7,413.1,353.7,413.1z"/>
						</g>
					</g>
				</g>
			</g>
		</g>
		<g>
			<g>
				<g>
					<g>
						<path class="st30" d="M343,407.4c0,0.1-0.5,0.1-1.1-0.2c-0.5-0.3-0.8-0.8-0.7-0.9c0.1-0.1,0.5,0.2,0.9,0.5
							C342.6,407.1,343,407.3,343,407.4z"/>
					</g>
				</g>
			</g>
		</g>
	</g>
	<g>
		<g>
			<g>
				<g>
					<g>
						<path class="st25" d="M356.6,418.9l39.5,5.7c3.9,1.2,8.2,0.9,11.8-1l35.2-18l-10.5-23.2l0,0c-1.5,0.5-3.2,1.2-4,1.7
							l-28.9,20.9l-42-1.5L356.6,418.9z"/>
					</g>
				</g>
			</g>
			<g>
				<g>
					<g>
						<g>
							<polygon class="st29" points="498,460.8 495.5,456.4 468.5,449.6 471.7,455.1 							"/>
						</g>
					</g>
				</g>
				<g>
					<g>
						<g>
							<path class="st25" d="M432.6,382.3c0,0.9-4,30.2-4,36.1c0,6,11.4,12.5,11.4,12.5l12.5,26.6h44.6L482,428.9l-6.9-22.9
								c-2.6-8.7-2.3-13.2-8.8-19.5l-12.5-8.4L432.6,382.3z"/>
						</g>
					</g>
				</g>
				<g>
					<g>
						<g>
							<path class="st25" d="M445.6,405.4l7.5,31.4l-37.8-10.6l-6.4,11.4l49.1,22.4c6.1,2.8,13.2,0.8,17-4.6l0,0
								c2.3-3.3,3.1-7.5,2.1-11.4l-11-43c-1.5-5.9-7.7-9.3-13.5-7.4l0,0C447.6,395.3,444.7,400.3,445.6,405.4z"/>
						</g>
					</g>
				</g>
				<g>
					<g>
						<g>
							<g>
								<path class="st23" d="M440.8,432.4c0,0-0.9-1.5-1.1-1.7c-0.3-0.1-0.7-0.3-1.2-0.6c-1-0.6-2.5-1.5-4.1-2.7
									c-1.6-1.3-3.6-3-4.9-5.5c-1.2-2.6-1.1-5.8-0.7-9c0.5-3.2,1.1-6.1,1.5-8.9c0.4-2.7,0.7-5.2,0.9-7.3c0.2-2.1,0.2-3.8,0.2-4.9
									c0-1.2,0-1.8,0-1.8c0,0,0,0.2,0.1,0.5c0,0.3,0.1,0.8,0.1,1.3c0.1,1.2,0.1,2.9,0,5c-0.1,2.1-0.4,4.6-0.8,7.3
									c-0.4,2.7-1,5.7-1.5,8.9c-0.4,3.1-0.5,6.2,0.6,8.7c1.2,2.4,3.1,4.1,4.7,5.5c1.6,1.3,3,2.2,4,2.9
									C439.6,430.6,440.8,432.4,440.8,432.4z"/>
							</g>
						</g>
					</g>
				</g>
				<g>
					<g>
						<g>
							<g>
								<path class="st23" d="M455.8,380.1c0,0-0.2,0.3-0.7,0.8c-0.5,0.5-1.1,1.1-2,1.9c-1.7,1.6-4.2,3.7-6.9,6
									c-2.8,2.2-5.4,4.2-7.4,5.5c-1,0.7-1.8,1.2-2.3,1.5c-0.6,0.3-0.9,0.5-0.9,0.5c0,0,0.3-0.3,0.8-0.7c0.6-0.5,1.4-1,2.2-1.7
									c1.9-1.4,4.5-3.3,7.3-5.6c2.8-2.2,5.2-4.3,7-5.9c0.8-0.7,1.5-1.3,2.1-1.8C455.5,380.3,455.8,380.1,455.8,380.1z"/>
							</g>
						</g>
					</g>
				</g>
				<g>
					<g>
						<g>
							<g>
								<path class="st23" d="M445.6,405.4c0,0,0.1,0.2,0.2,0.6c0.1,0.4,0.3,1,0.5,1.8c0.4,1.6,0.9,3.8,1.6,6.6
									c1.4,5.6,3.3,13.5,5.4,22.5l0.1,0.4l-0.4-0.1c-3.1-0.9-6.3-1.8-9.6-2.7c-10.9-3.1-20.8-5.9-28.1-8l0.2-0.1
									c-2,3.5-3.6,6.3-4.8,8.3c-0.6,0.9-1,1.7-1.3,2.2c-0.1,0.2-0.3,0.4-0.4,0.6c-0.1,0.1-0.1,0.2-0.1,0.2c0,0,0-0.1,0.1-0.2
									c0.1-0.2,0.2-0.4,0.3-0.6c0.3-0.6,0.7-1.3,1.2-2.3c1.1-2,2.7-4.9,4.6-8.4l0.1-0.1l0.1,0c7.3,2,17.2,4.8,28.2,7.9
									c3.3,0.9,6.6,1.9,9.6,2.7l-0.3,0.3c-2.1-9-4-16.9-5.3-22.5c-0.6-2.8-1.1-5-1.5-6.6c-0.2-0.7-0.3-1.3-0.4-1.8
									C445.6,405.6,445.6,405.4,445.6,405.4z"/>
							</g>
						</g>
					</g>
				</g>
				<g>
					<g>
						<g>
							<g>
								<path class="st23" d="M466.3,403.5c0,0,0.1,0.2,0.2,0.5c0.1,0.4,0.3,0.9,0.4,1.6c0.4,1.4,0.9,3.4,1.5,5.8
									c1.3,5,3,11.7,4.8,19.1c0.9,3.7,1.8,7.3,2.6,10.6c0.8,3.3,1.1,6.3,0.7,8.9c-0.3,2.5-1.3,4.5-2.1,5.6
									c-0.8,1.2-1.5,1.6-1.5,1.6c0,0,0.6-0.5,1.4-1.7c0.8-1.2,1.6-3.1,1.9-5.5c0.3-2.5,0-5.5-0.8-8.7c-0.8-3.2-1.7-6.8-2.6-10.5
									c-1.8-7.5-3.5-14.2-4.7-19.2c-0.6-2.4-1-4.4-1.4-5.8c-0.1-0.6-0.3-1.2-0.3-1.6C466.3,403.7,466.3,403.5,466.3,403.5z"/>
							</g>
						</g>
					</g>
				</g>
				<g class="st28">
					<g>
						<g>
							<g>
								<path d="M473.1,457.5c5.5,0.5,8.7-2.6,9.3-7c0.3-2.4-0.5-4.8-1.2-7c-3.4-9.9-6.8-20-12.2-29c2,9,4.6,17.7,6.7,26.7
									c0.7,2.9,0.9,4.7,0.9,7.7C476.5,452,475.1,455.2,473.1,457.5"/>
							</g>
						</g>
					</g>
				</g>
			</g>
		</g>
		<g>
			<g>
				<g>
					<path class="st20" d="M427.8,412.3c-0.1,0-1-0.8-2.2-2.5c-1.3-1.6-2.8-4-4.1-6.9c-1.3-2.9-2.1-5.6-2.5-7.6
						c-0.4-2-0.5-3.3-0.4-3.3c0.1,0,0.3,1.2,0.8,3.2c0.5,2,1.4,4.6,2.7,7.5c1.3,2.8,2.8,5.2,3.9,6.9
						C427.1,411.2,427.8,412.2,427.8,412.3z"/>
				</g>
			</g>
		</g>
		<g>
			<g>
				<g>
					<path class="st20" d="M417,418.7c-0.1,0-0.8-0.9-1.8-2.5c-1-1.6-2.4-3.9-3.8-6.4c-1.4-2.6-2.6-4.9-3.4-6.6
						c-0.8-1.7-1.2-2.8-1.2-2.9c0.1,0,0.6,1,1.5,2.7c1,1.9,2.2,4.1,3.5,6.5c1.3,2.4,2.6,4.6,3.6,6.5
						C416.5,417.6,417,418.6,417,418.7z"/>
				</g>
			</g>
		</g>
		<g>
			<g>
				<g>
					<path class="st20" d="M402.1,424.5c-0.2,0-1-4.2-1.8-9.3c-0.8-5.2-1.4-9.4-1.2-9.4c0.2,0,1,4.2,1.8,9.3
						C401.7,420.2,402.2,424.5,402.1,424.5z"/>
				</g>
			</g>
		</g>
		<g>
			<g>
				<g>
					<path class="st20" d="M388.8,423.6c-0.1,0-0.2-1-0.3-2.7c-0.1-1.7-0.2-3.9-0.1-6.5c0.1-2.5,0.2-4.8,0.4-6.5
						c0.2-1.6,0.4-2.7,0.4-2.6c0.1,0,0.1,1,0,2.7c-0.1,1.6-0.2,3.9-0.2,6.4c-0.1,2.5-0.1,4.8-0.1,6.4
						C388.9,422.6,388.9,423.6,388.8,423.6z"/>
				</g>
			</g>
		</g>
		<g>
			<g>
				<g>
					<path class="st20" d="M375.5,404.3c0.1,0,0.2,0.9,0.3,2.5c0.1,1.5,0.2,3.7,0.1,6c0,2.4-0.2,4.5-0.4,6c-0.2,1.5-0.3,2.5-0.4,2.5
						c-0.2,0,0.1-3.8,0.2-8.5C375.5,408.1,375.4,404.3,375.5,404.3z"/>
				</g>
			</g>
		</g>
		<g>
			<g>
				<g>
					<path class="st20" d="M364.6,405.7c0.2,0,0,3.2-0.3,7.1c-0.4,3.9-0.8,7.1-0.9,7.1c-0.2,0,0-3.2,0.3-7.1
						C364.1,408.8,364.5,405.7,364.6,405.7z"/>
				</g>
			</g>
		</g>
		<g>
			<g>
				<g>
					<path class="st20" d="M430.3,394.9c-0.2,0.1-0.9-1.9-2.1-4.1c-1.2-2.2-2.4-3.9-2.2-4c0.1-0.1,1.6,1.4,2.8,3.7
						C430,392.8,430.5,394.9,430.3,394.9z"/>
				</g>
			</g>
		</g>
		<g>
			<g>
				<g>
					<path class="st20" d="M450.8,426.6c0,0-0.3,0.1-0.9,0.1c-0.6,0-1.4,0-2.5-0.1c-2.1-0.1-5-0.7-8.1-1.8c-3-1.1-5.6-2.7-7.3-3.9
						c-0.8-0.6-1.5-1.2-1.9-1.6c-0.4-0.4-0.6-0.6-0.6-0.7c0.1-0.1,1.1,0.8,2.8,1.9c1.7,1.2,4.2,2.6,7.2,3.7c3,1.1,5.8,1.7,7.9,1.9
						C449.5,426.5,450.8,426.5,450.8,426.6z"/>
				</g>
			</g>
		</g>
		<g>
			<g>
				<g>
					<path class="st20" d="M446.6,411.7c0,0.1-0.9,0-2.4-0.3c-1.5-0.3-3.5-0.8-5.7-1.5c-2.2-0.8-4.1-1.6-5.4-2.3
						c-1.3-0.7-2.1-1.2-2.1-1.3c0.1-0.2,3.4,1.6,7.7,3C443,410.9,446.6,411.6,446.6,411.7z"/>
				</g>
			</g>
		</g>
		<g>
			<g>
				<g>
					<path class="st20" d="M444.1,401c0,0.1-2.9,0.3-6.2-1c-3.3-1.3-5.3-3.5-5.2-3.6c0.1-0.1,2.2,1.7,5.4,3
						C441.3,400.8,444.1,400.8,444.1,401z"/>
				</g>
			</g>
		</g>
		<g>
			<g>
				<g>
					<path class="st20" d="M461.6,393.4c-0.1,0.1-1-0.5-2.6-1c-1.6-0.5-4.1-0.7-6.6,0.2c-2.4,0.9-4.2,2.7-5.1,4.1
						c-1,1.4-1.2,2.5-1.3,2.5c-0.1,0,0.1-1.1,1-2.7c0.9-1.5,2.7-3.5,5.3-4.5c2.6-1,5.2-0.7,6.9-0.1
						C460.8,392.6,461.6,393.4,461.6,393.4z"/>
				</g>
			</g>
		</g>
		<g>
			<g>
				<g>
					<path class="st20" d="M463.6,407.7c0,0.1-0.7,0.5-2,1.1c-1.3,0.6-3.1,1.2-5.2,1.6c-2.1,0.4-4.1,0.5-5.5,0.5
						c-1.4,0-2.3-0.2-2.3-0.3c0-0.2,3.5,0,7.6-0.8C460.4,409.1,463.6,407.6,463.6,407.7z"/>
				</g>
			</g>
		</g>
		<g>
			<g>
				<g>
					<path class="st20" d="M469.6,425.7c0,0.2-3.7,0.7-8.2,1.1c-4.5,0.4-8.2,0.7-8.3,0.5c0-0.2,3.7-0.7,8.2-1.1
						C465.9,425.8,469.6,425.5,469.6,425.7z"/>
				</g>
			</g>
		</g>
		<g>
			<g>
				<g>
					<path class="st20" d="M474.9,450.6c0,0-0.3,0-0.9-0.2c-0.6-0.1-1.4-0.4-2.4-0.8c-2-0.8-4.7-2.2-7.5-4c-2.8-1.8-5.1-3.7-6.8-5.1
						c-1.7-1.4-2.7-2.3-2.6-2.4c0.1-0.1,1.1,0.7,2.9,2c1.7,1.3,4.1,3.1,6.9,4.9c2.7,1.8,5.4,3.2,7.3,4.1
						C473.6,450.1,474.9,450.5,474.9,450.6z"/>
				</g>
			</g>
		</g>
		<g>
			<g>
				<g>
					<path class="st20" d="M446.6,454.4c-0.1,0-0.2-1-0.2-2.6c0-1.6,0.2-3.9,0.8-6.4c0.6-2.4,1.4-4.6,2.2-6c0.7-1.5,1.3-2.3,1.4-2.3
						c0.2,0.1-1.8,3.6-3,8.4C446.6,450.3,446.8,454.4,446.6,454.4z"/>
				</g>
			</g>
		</g>
		<g>
			<g>
				<g>
					<path class="st20" d="M432.4,446.8c-0.1,0-0.5-3.3,0.7-7.2c1.2-3.9,3.3-6.5,3.4-6.4c0.2,0.1-1.7,2.8-2.8,6.6
						C432.5,443.5,432.6,446.8,432.4,446.8z"/>
				</g>
			</g>
		</g>
		<g>
			<g>
				<g>
					<path class="st20" d="M424.4,428.2c0.1,0.1-2.5,2.5-4.3,6.3c-1.9,3.8-2.3,7.2-2.5,7.2c-0.1,0-0.1-0.9,0.2-2.3
						c0.2-1.4,0.8-3.3,1.8-5.2c1-1.9,2.2-3.5,3.2-4.5C423.7,428.6,424.4,428.1,424.4,428.2z"/>
				</g>
			</g>
		</g>
		<g>
			<g>
				<g>
					<path class="st20" d="M476.8,411.9c0.1,0.1-1.1,1.6-3.3,2.4c-2.2,0.9-4.1,0.6-4.1,0.5c0-0.2,1.8-0.2,3.9-1.1
						C475.4,413,476.7,411.7,476.8,411.9z"/>
				</g>
			</g>
		</g>
		<g>
			<g>
				<g>
					<path class="st20" d="M471.5,395.5c0.1,0.1-0.6,1.6-2.2,2.9c-1.6,1.3-3.2,1.7-3.3,1.6c-0.1-0.2,1.4-0.8,2.9-2
						C470.4,396.7,471.3,395.4,471.5,395.5z"/>
				</g>
			</g>
		</g>
		<g>
			<g>
				<g>
					<path class="st20" d="M452.5,384.6c0.1-0.1,1.4,0.9,2.3,2.6c1,1.7,1.1,3.4,1,3.4c-0.2,0-0.6-1.5-1.5-3.1
						C453.4,385.9,452.3,384.7,452.5,384.6z"/>
				</g>
			</g>
		</g>
		<g>
			<g>
				<g>
					<path class="st20" d="M480.8,427.3c0.1,0.1-1.4,1.2-3.6,1.8c-2.2,0.6-4,0.4-4,0.2c0-0.2,1.8-0.2,3.9-0.8
						C479.1,427.9,480.7,427.1,480.8,427.3z"/>
				</g>
			</g>
		</g>
		<g>
			<g>
				<g>
					<path class="st20" d="M488.9,441.6c0,0.2-2.8,0.5-6.3,0.8c-3.5,0.3-6.4,0.4-6.4,0.2c0-0.2,2.8-0.5,6.3-0.8
						C486,441.6,488.9,441.5,488.9,441.6z"/>
				</g>
			</g>
		</g>
		<g>
			<g>
				<g>
					<path class="st20" d="M494.6,453.2c0,0.2-4.2,0.2-9.4,0.1c-5.2-0.1-9.4-0.4-9.4-0.5c0-0.2,4.2-0.2,9.4-0.1
						C490.4,452.8,494.6,453,494.6,453.2z"/>
				</g>
			</g>
		</g>
	</g>
	<g>
		<g>
			<g>
				<g>
					<g>
						<path class="st23" d="M453.3,337.4c0.8,4,6.5,5.5,7,9.5c0.2,1.7-0.6,3.4-0.5,5.1c0.1,2.3,1.7,4.3,2.5,6.4
							c1.7,4.5-0.2,9.8-3.8,13c-3.6,3.2-8.5,4.4-13.3,4.5"/>
					</g>
				</g>
			</g>
		</g>
		<g>
			<g>
				<g>
					<g>
						<g>
							<path class="st23" d="M421.1,341.5c0.5,2.1-0.6,4.2-1.8,6.1c-1.2,1.8-2.5,3.7-2.5,5.9c0,3.8,4.3,6.7,4.1,10.6
								c-0.1,2.1-1.5,3.9-1.4,6c0,2,1.4,3.7,2.9,5c1.5,1.3,3,0.8,4.4,2.2c1.5,1.5,3.7,2.9,5.7,3.6c4.5,1.6,8.9-2.4,10.8-3.3"/>
						</g>
					</g>
				</g>
			</g>
			<g>
				<g>
					<g>
						<g>
							<path class="st23" d="M454.5,339.6c-0.3-1.9-2.3-3.2-4.2-3.6c-1.9-0.4-4-0.4-5.7-1.2c-1.6-0.7-2.8-2.1-4.2-3.1
								c-3.4-2.5-8.2-3-12.1-1.3c-3.9,1.7-6.7,5.7-7.1,9.9c-0.3,2.9,0.7,6.1,3.2,7.5c2.9,1.7,6.5,0.7,9.7-0.5
								c3.1-1.2,6.7-2.4,9.7-0.9c1.8,0.9,3,2.6,4.3,4.2c1.3,1.6,2.8,3.1,4.8,3.5c2,0.4,4.4-1.2,4.1-3.2"/>
						</g>
					</g>
				</g>
			</g>
			<g>
				<g>
					<g>
						<g>
							<g>
								<g>
									<g>
										<g>
											<g>
												<g>
													<path class="st29" d="M455.1,380.9l-4.7-37.8c-0.2-1.7-1.7-2.9-3.4-2.8l-17.9-1.7c-5.6,0.3-8.2,7.6-7.7,13.2
														c0.6,6.2,1.5,13.8,3,18.2c2.9,9,10.1,9.1,10.1,9.1c0,0,1.4,13.3,1.9,16.6"/>
												</g>
											</g>
										</g>
										<g>
											<g>
												<g>
													<g>
														<g>
															<g>
																<g>
																	<g>
																		<g>
																			<g>
																				<g>
																					<path class="st23" d="M423.9,358.7c0.1,0.6,0.7,1.1,1.3,1c0.7-0.1,1.1-0.6,1.1-1.3c-0.1-0.6-0.7-1.1-1.3-1
																						C424.3,357.5,423.8,358.1,423.9,358.7z"/>
																				</g>
																			</g>
																		</g>
																	</g>
																</g>
															</g>
														</g>
													</g>
												</g>
											</g>
											<g>
												<g>
													<g>
														<g>
															<g>
																<g>
																	<g>
																		<g>
																			<g>
																				<g>
																					<g>
																						<path class="st23" d="M423.5,356.4c0.2,0.1,1-0.7,2.2-0.9c1.3-0.2,2.3,0.3,2.4,0.1c0.1-0.1-0.1-0.3-0.6-0.6
																							c-0.4-0.2-1.2-0.4-2-0.3c-0.8,0.1-1.4,0.5-1.7,0.9C423.6,356,423.5,356.3,423.5,356.4z"/>
																					</g>
																				</g>
																			</g>
																		</g>
																	</g>
																</g>
															</g>
														</g>
													</g>
												</g>
											</g>
										</g>
										<g>
											<g>
												<g>
													<g>
														<g>
															<g>
																<g>
																	<g>
																		<g>
																			<g>
																				<g>
																					<path class="st23" d="M436.7,356.8c0.1,0.6,0.7,1.1,1.3,1c0.7-0.1,1.1-0.6,1.1-1.3c-0.1-0.6-0.7-1.1-1.3-1
																						C437.1,355.6,436.6,356.2,436.7,356.8z"/>
																				</g>
																			</g>
																		</g>
																	</g>
																</g>
															</g>
														</g>
													</g>
												</g>
											</g>
											<g>
												<g>
													<g>
														<g>
															<g>
																<g>
																	<g>
																		<g>
																			<g>
																				<g>
																					<g>
																						<path class="st23" d="M436.1,354.7c0.2,0.1,1-0.7,2.2-0.9c1.3-0.2,2.3,0.3,2.4,0.1c0.1-0.1-0.1-0.3-0.6-0.6
																							c-0.4-0.2-1.2-0.4-2-0.3c-0.8,0.1-1.4,0.5-1.7,0.9C436.1,354.3,436,354.6,436.1,354.7z"/>
																					</g>
																				</g>
																			</g>
																		</g>
																	</g>
																</g>
															</g>
														</g>
													</g>
												</g>
											</g>
										</g>
										<g>
											<g>
												<g>
													<g>
														<g>
															<g>
																<g>
																	<g>
																		<g>
																			<g>
																				<g>
																					<path class="st23" d="M432.9,364.8c0-0.1-0.8-0.1-2.1-0.1c-0.3,0-0.6,0-0.7-0.2c-0.1-0.2,0-0.6,0.1-1
																						c0.2-0.8,0.4-1.7,0.6-2.6c0.8-3.7,1.3-6.8,1.1-6.8c-0.2,0-0.9,3-1.7,6.7c-0.2,0.9-0.4,1.8-0.5,2.6
																						c-0.1,0.4-0.2,0.8,0,1.3c0.1,0.2,0.4,0.4,0.6,0.4c0.2,0,0.4,0,0.6,0C432.1,365,432.9,364.9,432.9,364.8z"/>
																				</g>
																			</g>
																		</g>
																	</g>
																</g>
															</g>
														</g>
													</g>
												</g>
											</g>
										</g>
										<g>
											<g>
												<g>
													<g>
														<g>
															<g>
																<g>
																	<g>
																		<g>
																			<g>
																				<path class="st30" d="M434.5,379.1c0,0,6.2-0.4,11.7-5.1c-0.1,0-2.5,7.1-11.5,7.5L434.5,379.1z"/>
																			</g>
																		</g>
																	</g>
																</g>
															</g>
														</g>
													</g>
												</g>
											</g>
										</g>
										<g>
											<g>
												<g>
													<g>
														<g>
															<g>
																<g>
																	<g>
																		<g>
																			<g>
																				<path class="st30" d="M434,367.8c0.4-0.7,1.1-1.1,1.9-1.2c0.6,0,1.2,0.2,1.6,0.6c0.4,0.4,0.6,1,0.3,1.5
																					c-0.3,0.5-1,0.8-1.6,0.7c-0.6-0.1-1.2-0.4-1.8-0.7c-0.2-0.1-0.3-0.2-0.4-0.3C433.9,368.2,433.8,368,434,367.8"
																					/>
																			</g>
																		</g>
																	</g>
																</g>
															</g>
														</g>
													</g>
												</g>
											</g>
										</g>
										<g>
											<g>
												<g>
													<g>
														<g>
															<g>
																<g>
																	<g>
																		<g>
																			<g>
																				<g>
																					<path class="st23" d="M436.8,365.1c-0.2,0,0,1.4-1,2.6c-1,1.2-2.5,1.2-2.5,1.4c0,0.1,0.4,0.2,1,0.1
																						c0.6-0.1,1.5-0.4,2.1-1.1c0.6-0.7,0.8-1.6,0.8-2.1C437.1,365.4,436.9,365.1,436.8,365.1z"/>
																				</g>
																			</g>
																		</g>
																	</g>
																</g>
															</g>
														</g>
													</g>
												</g>
											</g>
										</g>
									</g>
								</g>
							</g>
							<g>
								<g>
									<g>
										<g>
											<g>
												<g>
													<g>
														<g>
															<g>
																<g>
																	<path class="st23" d="M434.9,351.2c0.2,0.3,1.4,0,2.9-0.1c1.5-0.1,2.8,0.2,2.9-0.2c0.1-0.2-0.2-0.5-0.7-0.7
																		c-0.5-0.3-1.4-0.5-2.3-0.4c-0.9,0-1.7,0.3-2.2,0.6C435.1,350.7,434.9,351.1,434.9,351.2z"/>
																</g>
															</g>
														</g>
													</g>
												</g>
											</g>
										</g>
									</g>
								</g>
							</g>
							<g>
								<g>
									<g>
										<g>
											<g>
												<g>
													<g>
														<g>
															<g>
																<g>
																	<path class="st23" d="M423.4,352.6c0.3,0.3,1.1-0.2,2.1-0.4c1-0.2,2-0.1,2.1-0.4c0.1-0.2-0.1-0.4-0.6-0.6
																		c-0.4-0.2-1.1-0.3-1.8-0.2c-0.7,0.1-1.3,0.5-1.6,0.8C423.4,352.2,423.3,352.5,423.4,352.6z"/>
																</g>
															</g>
														</g>
													</g>
												</g>
											</g>
										</g>
									</g>
								</g>
							</g>
						</g>
					</g>
				</g>
			</g>
			<g>
				<g>
					<g>
						<g>
							<path class="st23" d="M455.6,371.4c-2.5,0.9-2.9-0.3-5.1-1.8c-2.2-1.5-3.6-4-3.7-6.6c-0.1-2.3,0.8-4.8-0.3-6.8
								c-1.5-2.7-5.6-2.9-7.1-5.6c-0.9-1.5-0.6-3.6-1.6-5.1c-0.9-1.4-2.6-2-4.3-2.3c-1.6-0.3-3.4-0.4-4.8-1.2
								c-1.5-0.8-2.6-2.6-2-4.1c7-0.3,14,0.3,20.9,1.7c1.6,0.3,3.3,0.7,4.4,1.9c1.2,1.3,1.4,3.1,1.6,4.8c0.9,8.3,1.8,16.7,2.8,25"/>
						</g>
					</g>
				</g>
			</g>
		</g>
		<g>
			<g>
				<g>
					<g>
						<path class="st23" d="M458.5,351.7c-0.2-3.1,1.9-6.2,4.8-7.2c2.9-1,6.4,0.1,8.2,2.6c1.7,2.4,1.7,5.6,1,8.5
							c-0.9,3.4-3.4,6.7-6.8,7.1c-3.3,0.4-6.3-2.1-7.7-5c-1.4-3-1.6-6.3-1.7-9.6"/>
					</g>
				</g>
			</g>
		</g>
		<g>
			<g>
				<g>
					<g>
						<g>
							<path class="st24" d="M462.3,364c0,0,0.2-0.2,0.4-0.6c0.2-0.4,0.4-1.1,0.4-2c0-0.8-0.2-1.8-0.5-2.9c-0.4-1.1-0.9-2.1-1.4-3.3
								c-0.5-1.2-0.8-2.3-0.7-3.4c0-1.1,0.4-2,0.5-2.8c0.1-0.8,0-1.6-0.3-2c-0.2-0.4-0.4-0.6-0.5-0.6c0,0,0.2,0.2,0.3,0.6
								c0.2,0.4,0.3,1.1,0.1,1.9c-0.1,0.8-0.5,1.7-0.5,2.9c-0.1,1.1,0.3,2.4,0.7,3.5c0.5,1.2,1,2.3,1.4,3.3c0.4,1,0.6,2,0.6,2.8
								C462.9,363.1,462.2,364,462.3,364z"/>
						</g>
					</g>
				</g>
			</g>
		</g>
		<g>
			<g>
				<g>
					<g>
						<g>
							<path class="st24" d="M460.7,352.9c0,0,0.5,0.6,1.6,1.2c1.1,0.6,2.8,1,4.8,0.8c1.9-0.3,3.5-1.2,4.4-2
								c0.9-0.8,1.3-1.5,1.2-1.6c-0.1,0-0.5,0.6-1.4,1.3c-0.9,0.8-2.4,1.6-4.2,1.9c-1.8,0.3-3.5-0.2-4.6-0.6
								C461.3,353.4,460.7,352.9,460.7,352.9z"/>
						</g>
					</g>
				</g>
			</g>
		</g>
		<g>
			<g>
				<g>
					<g>
						<g>
							<path class="st24" d="M461.3,354.3c0,0,0.3,0.6,1,1.3c0.7,0.7,1.9,1.6,3.4,2.2c1.5,0.6,2.9,0.8,4,0.7c1,0,1.7-0.2,1.6-0.2
								c0-0.1-0.6,0-1.6,0c-1,0-2.4-0.3-3.8-0.8c-1.4-0.6-2.6-1.4-3.3-2C461.8,354.8,461.4,354.3,461.3,354.3z"/>
						</g>
					</g>
				</g>
			</g>
		</g>
		<g>
			<g>
				<g>
					<g>
						<g>
							<path class="st24" d="M461,367.4c0,0,0,0,0.1-0.1c0-0.1,0.1-0.2,0.2-0.4c0.2-0.4,0.3-0.9,0.4-1.7c0-0.8-0.1-1.7-0.6-2.7
								c-0.5-1-1.3-2-2.6-2.5c-1.2-0.6-2.7-0.9-3.8-2c-0.5-0.5-0.9-1.3-0.8-2.1c0-0.8,0.2-1.6,0.4-2.5c0.4-1.8,0.1-3.8-1-5.5
								c-0.6-0.8-1.3-1.6-2.2-2c-0.9-0.5-2-0.7-3-0.7c-1-0.1-2,0-3-0.2c-1-0.1-1.9-0.4-2.7-1c-0.8-0.5-1.2-1.4-1.4-2.2
								c-0.3-0.9-0.5-1.8-0.9-2.6c-0.7-1.7-1.8-3-3.2-4c-1.3-0.9-2.9-1.3-4.2-1.3c-1.4,0-2.6,0.5-3.5,1.1c-0.9,0.6-1.4,1.4-1.8,2.1
								c-0.3,0.7-0.4,1.3-0.5,1.7c0,0.4,0,0.6,0,0.6c0.1,0-0.1-0.9,0.6-2.2c0.3-0.7,0.9-1.4,1.8-2c0.9-0.6,2-1,3.3-1
								c1.3,0,2.8,0.4,4,1.3c1.3,0.9,2.3,2.2,3,3.8c0.4,0.8,0.6,1.7,0.8,2.6c0.3,0.9,0.7,1.9,1.6,2.5c0.8,0.6,1.8,0.9,2.8,1
								c1,0.1,2,0.1,3,0.2c1,0.1,2,0.2,2.9,0.7c0.9,0.4,1.6,1.1,2.1,1.9c1.1,1.6,1.4,3.5,1,5.2c-0.2,0.9-0.4,1.7-0.4,2.6
								c0,0.9,0.4,1.8,1,2.3c1.2,1.2,2.8,1.4,3.9,2c1.2,0.5,2.1,1.4,2.5,2.4c0.5,0.9,0.6,1.9,0.6,2.6
								C461.5,366.6,461,367.4,461,367.4z"/>
						</g>
					</g>
				</g>
			</g>
		</g>
		<g>
			<g>
				<g>
					<g>
						<g>
							<path class="st24" d="M456.4,341.7c0,0,0.1-0.1,0-0.4c0-0.3-0.1-0.7-0.5-1.2c-0.4-0.4-0.9-0.9-1.7-1c-0.8-0.2-1.7,0-2.7,0.3
								c-0.9,0.3-1.9,0.9-2.9,1.3c-1,0.4-2.3,0.6-3.4,0c-1.1-0.6-1.8-1.8-2.5-3c-0.7-1.2-1.6-2.4-2.7-3.5c-2.2-2-5-3.2-7.7-3.4
								c-1.3-0.1-2.6,0.2-3.7,0.7c-1.1,0.5-1.9,1.3-2.4,2.2c-0.5,0.9-0.7,1.8-0.6,2.6c0.1,0.8,0.3,1.5,0.6,1.9
								c0.3,0.5,0.6,0.8,0.9,0.9c0.2,0.2,0.4,0.2,0.4,0.2c0,0-0.6-0.3-1.1-1.2c-0.3-0.5-0.5-1.1-0.5-1.9c0-0.8,0.1-1.6,0.7-2.4
								c0.5-0.8,1.3-1.5,2.3-2c1-0.5,2.2-0.7,3.5-0.6c2.5,0.2,5.3,1.4,7.4,3.3c1.1,1,2,2.1,2.7,3.4c0.7,1.2,1.4,2.5,2.7,3.1
								c0.6,0.3,1.3,0.4,1.9,0.4c0.6,0,1.2-0.2,1.8-0.4c1.1-0.4,2-1,2.9-1.3c0.9-0.4,1.8-0.5,2.5-0.4c0.7,0.1,1.3,0.5,1.7,0.9
								c0.4,0.4,0.5,0.8,0.5,1.1C456.4,341.6,456.3,341.7,456.4,341.7z"/>
						</g>
					</g>
				</g>
			</g>
		</g>
	</g>
</g>
</svg>
